<svg xmlns="http://www.w3.org/2000/svg" viewBox="0 0 500 500"><path d="M189.82,273.63h-16v-45h16Zm88.36-45h-16v45h16Zm-78.36-35h-16v35h16Zm78.36,0h-16v35h16Zm-68.36-25h-16v25h16Zm68.36,0h-16v25h16ZM240.36,137.5h-16V450.93h16Z" fill="#e7eaf0"/><path d="M223.82,450.93h-60V273.63h60Zm98.36-177.3h-60v177.3h60ZM232.36,137.5h21.28l-9.46-66.8Z" fill="#42c8b7"/><path d="M278.18,450.93h-16V273.63h16Zm-98.36-177.3h-16v177.3h16Z" fill="#1abea3"/><path d="M294.82 251.13a7.64 7.64 0 1 1-7.64-7.64 7.64 7.64 0 0 1 7.64 7.64zm-12.64-44.8a4.81 4.81 0 1 0 4.81 4.8 4.8 4.8 0 0 0-4.81-4.8zm-5-27.7a2.5 2.5 0 1 0 2.5 2.5 2.5 2.5 0 0 0-2.5-2.5zm-86 72.5a7.64 7.64 0 1 0 7.64-7.64 7.64 7.64 0 0 0-7.64 7.64zm7.83-40a4.81 4.81 0 1 0 4.81-4.8 4.81 4.81 0 0 0-4.82 4.8zm7.3-30a2.5 2.5 0 1 0 2.5-2.5 2.5 2.5 0 0 0-2.5 2.5z"/><path d="M262.18 450.93h-38.36V137.5h38.36zm-171.57.4H409.4M262.18 137.5h-38.36v313.43h38.36zm60 136.13h-60v177.7h60zm-10-45h-50v45h50zm-10-35h-40v35h40zm-10-25h-30v25h30zm-38.54-31.13L243 62.45l-10.64 75.05m29.82 136.13h68m-68-45h58m-58-35h48m-48-25h38M282.35 309.5v106m20.17-106v106m-138.7 35.85h60v-177.7h-60zm10-177.7h50v-45h-50zm10-45h40v-35h-40zm10-35h30v-25h-30zm30 80h-68m68-45h-58m10-35h48m0-25h-38m17.83 140.86v106m-20.17-106v106" fill="none" stroke="#000" stroke-linecap="round" stroke-linejoin="round" stroke-width="9"/></svg>