<svg xmlns="http://www.w3.org/2000/svg" viewBox="0 0 500 500"><path d="M255.47 186.37H245v-19.25h10.5zM245 174.43h-14v11.94h14zm24.5 0h-14v11.94h14zm-12.14 25H243.1v19.25h14.24zm-11.12 7.3H227v11.95h19.25zm27.26 0h-19.3v11.95h19.26zm-11.68 25h-23.2V251h23.16zm-19.6 7.27H223v12h19.25zm35.26 0h-19.26v12h19.26zm-31.26 32.3H219v11.95h27.25zm35.26 0h-28.12v11.95h28.12zm-20.66-7.3h-23.17v19.26h23.17zm-18.6 39.6H215v11.94h27.25zm43.26 0h-28.12v11.94h28.12zm-22.2-7.3h-28.1v19.25h28.1zm-56.1-148.43h-16v38.5h16zm-8.5 38.5h-16v32.3h16zm-15.24 32.3h-16V251h16zM169.56 251h-16v32.3h16zm-13.34 32.3h-16v32.3h16z" fill="#e7eaf0"/><path d="M374.76 315.55v135.38h-82.3v-93.35h16.33v-17.7H191.2v17.7h16.33v93.35h-82.3V315.55zm-83.62-209.7H268.5l.87 21.8-19.8 5.62-14.8-6.43-6-21H209.3v42h81.84z" fill="#42c8b7"/><path d="M225.3,147.87h-16v-42h16ZM141.24,315.55h-16V450.93h16Z" fill="#1abea3"/><path d="M308.8 186.37H191.2v-38.5h117.6zm7.34 211.43v53.53m35.4-53.53v53.53M148.47 397.8v53.53m35.4-53.53v53.53m175.92-168.07H140.22v32.3h219.56zM346.44 251H153.56v32.3h192.88zm-13.9-32.3H167.46V251h165.08zm-15.24-32.3H182.7v32.3h134.6zm-108-94.7v56.17h81.84V91.7m-81.84 14.16h81.84m83.62 209.7H125.24v135.38h249.52zM250.22 104.73V63m-20.46 28.7v39.15h40.92V91.7m21.8 265.88h-84.94v93.35h84.94zm16.33-17.7H191.2v17.7h117.6zM90.6 451.33H409.4" fill="none" stroke="#000" stroke-linecap="round" stroke-linejoin="round" stroke-width="9"/></svg>