<svg xmlns="http://www.w3.org/2000/svg" viewBox="0 0 500 500"><path d="M128.2 424.1V243.05H371.8V426h-54.7V264.13H182.9V426l-54.7-1.88z" fill="#42c8b7"/><path d="M189.8 95.43l16.68-12.82 7.44-10.8.9-6.13h70.36s1.34 8.3 2.74 10.46 9.32 9.33 9.32 9.33l9.43 10zm-43.6 147.62h-18V426h18z" fill="#1abea3"/><path d="M182.58 451.33h-70.5v-25.88h70.5zm205.18-25.88h-70.5v25.88h70.5zM146.2 222.4h-18v20.66h18zm0-49.9h-18v31.8h18zm-10 32.07H108.4l13.9 12.76 13.9 7.88zm28.35-64h-18v31.8h18zM177 95.8h-18v44.77h18z" fill="#e7eaf0"/><path d="M209 117.93a6.24 6.24 0 1 1-6.23-6.24 6.23 6.23 0 0 1 6.23 6.24zm88.25-6.24a6.24 6.24 0 1 0 6.24 6.24 6.23 6.23 0 0 0-6.25-6.24zm47.2 168.24a6.24 6.24 0 1 0 6.23 6.24 6.24 6.24 0 0 0-6.24-6.24zm-188.88 0a6.24 6.24 0 1 0 6.24 6.24 6.23 6.23 0 0 0-6.25-6.24z"/><path d="M90.6 451.33H409.4M342 95.43H158v45h184zm13.53 45H144.45v32.07h211.1zm16.24 32.07H128.2v32.07H371.8zm0 51.3H128.2v19.24H371.8zM310.2 95.43L293.52 82.6a21.38 21.38 0 0 1-8.34-16.93h-70.36a21.38 21.38 0 0 1-8.34 16.93L189.8 95.43m207.1 109.14H103.1l25.1 19.24H371.8zm-79.8 59.56H182.9v187.2H317.1zm-205 187.2h70.84V426h-70.86zm205 0h70.84V426H317.1zM128.2 243.05V426M371.8 243.05V426M250 284.2a44.13 44.13 0 0 0-44.13 44.13v123h88.26v-123A44.13 44.13 0 0 0 250 284.2zm-44.13 53.12h-93.8m93.8 30.45h-93.8m275.86-30.45h-93.8m93.8 30.45h-93.8M250 264.13v20.07" fill="none" stroke="#000" stroke-linecap="round" stroke-linejoin="round" stroke-width="9"/></svg>