<svg xmlns="http://www.w3.org/2000/svg" viewBox="0 0 500 500"><path d="M184.64 451.33h-18V431.4l18-12zM342 370.7c-6 0-10.95 21.9-10.95 28a11 11 0 0 0 10.95 10.9 11 11 0 0 0 11-10.95c-.1-6.05-5-27.95-11-27.95z" fill="#1abea3"/><path d="M304.88 271.38H166.64v-37.9h138.24zm0 72.85L166.64 431v20.34h138.24z" fill="#42c8b7"/><path d="M185.22 233.8h-18.58v-37.94h18.58zm9.83-39l109.83-54.85v-3.8l.17-17.07-138.4 69.12v7.4zm-9.83 76.56h-18.58v72.9h18.58zm-18.58 158.4l18-12v-73.5h-18z" fill="#e7eaf0"/><path d="M102.1 451.33H392m-87.14 0V118.85l-138.22 69.3v263.17m138.24-354l-138.24 69.3m0 142.65h138.24m-138.24-37.9h138.24m-138.24-37.9h138.24m-138.24-37.9h138.24m-75.8-37.9h75.8M166.64 431l138.24-86.77H166.64m18.58-165.38V157.3m23.87 9.6v-21.54m23.9 9.54v-21.54m47.7-2.37v-21.57m-23.87-50.76v82.47M342 370.7c-6 0-10.95 21.9-10.95 28a11 11 0 0 0 10.95 10.9 11 11 0 0 0 11-10.95c-.1-6.05-5-27.95-11-27.95zm0 38.9v41.72m-82.28-50.86h20.46m-20.46 30h20.46m-65.46 0h20.46" fill="none" stroke="#000" stroke-linecap="round" stroke-linejoin="round" stroke-width="9"/></svg>