<svg xmlns="http://www.w3.org/2000/svg" viewBox="0 0 500 500"><path d="M147.4 327l9.54-21.7h41.52v146H147.4zm205.2 0l-9.54-21.7h-41.52v146h51.06zM130.5 85.2a10.72 10.72 0 0 0-10.72 10.72v13.73h21.44V95.92A10.72 10.72 0 0 0 130.5 85.2zm239 0a10.72 10.72 0 0 0-10.72 10.72v13.73h21.44V95.92A10.72 10.72 0 0 0 369.5 85.2z" fill="#42c8b7"/><path d="M129.6 451.33h-16V327h16zm-9.54-184.9h-16v38.87h16zm52.15 0h-16v38.87h16zM156 223.2h-16v38.86h16zm11-32.4h-16l-11 32.1h16zM104 305.3l9.6 21.7h16l-9.54-21.7zM368.6 327h-16v124.33h16zm-9.54-60.57h-16v38.87h16zm-16 38.87l9.54 21.7h16l-9.54-21.7z" fill="#e7eaf0"/><path d="M317.54,451.33h-16v-146h16ZM164,327l9-21.7H157L148,327V451.33h16ZM141.22,109.65H119.78v81.14h21.44Zm239,0H358.78v81.14h21.44Z" fill="#1abea3"/><path d="M156.94 305.3h186.12M90.6 451.3H409.4M147.4 327h-33.8v124.33h33.8zm9.54-60.57h-52.88v38.87h52.88zm-5-75.65h-42.86l10.7 31.08h21.44zM130.5 85.2a10.72 10.72 0 0 0-10.72 10.72v94.87h21.44V95.92A10.72 10.72 0 0 0 130.5 85.2zm10.72 136.67h-21.44v44.57h21.44zM386.4 327h-33.8v124.33h33.8zm9.54-60.57h-52.88v38.87h52.88zm-5-75.65h-42.86l10.7 31.08h21.44zM369.5 85.2a10.72 10.72 0 0 0-10.72 10.72v94.87h21.44V95.92A10.72 10.72 0 0 0 369.5 85.2zm10.72 136.67h-21.44v44.57h21.44zM369.5 85.2V71.8M113.6 327l-9.54-21.7m52.88 0L147.4 327m195.66-21.7l9.54 21.7m33.8 0l9.54-21.7m-254.72-83.43h217.56M151.92 190.8h196.16m-191.14 75.65h186.12m-171.6-21.3v20.7m31.4-20.7v20.7m31.4-20.7v20.7m31.42-20.7v20.7m31.4-20.7v20.7m31.4-20.7v20.7m-187.3-156.2h-21.44v36.53h21.44zm239 0h-21.44v36.53h21.44zM301.54 305.3H198.46v146h103.08zm0 83.05a56.26 56.26 0 0 0-35.9-52.44L250 329.85l-15.64 6.07a56.26 56.26 0 0 0-35.9 52.44v63h103.08zM172.93 336v17.67m0 22.3v17.67m0 22.3v17.67M327.07 336v17.67m0 22.3v17.67m0 22.3v17.67M130.5 85.2V71.8" fill="none" stroke="#000" stroke-linecap="round" stroke-linejoin="round" stroke-width="9"/></svg>