<svg xmlns="http://www.w3.org/2000/svg" viewBox="0 0 500 500"><path d="M370 286.17a379.4 379.4 0 0 0-240 0v165.16h40.54V332a251.17 251.17 0 0 1 158.92 0v119.33H370V286.17z" fill="#42c8b7"/><path d="M333.2 164h-16v-38.38h16zm-151.7-41.14v-4.7l-5.9-7.1-5.05-2.26-11.34-.5-5.15 5.8-3.85 10.5zm167.66 0v-4.7l-5.9-7.1-5.06-2.26-11.33-.5-5.16 5.8-3.84 10.5zm-182.94 2.76h-16v152.7h16z" fill="#e7eaf0"/><path d="M145.3 451.33h-16V285.2h16zm72.3-345.94H284l-9.3-21L252.44 73l-20.37 5.4-10.13 10.8z" fill="#1abea3"/><path d="M90.6 451.33H409.4M370 286.17a379.4 379.4 0 0 0-240 0v165.16h240zM329.46 332a251.17 251.17 0 0 0-158.92 0v119.33h158.92zm20.34-52V172.5a268.2 268.2 0 0 0-199.6 0v107.43m159.65-8.48V205.5a160.84 160.84 0 0 0-119.7 0v65.95m159.65-99.08V124.6a16.3 16.3 0 0 0-16.3-16.3 16.31 16.31 0 0 0-16.31 16.3v37.2m-134.38 0v-37.2a16.31 16.31 0 0 0-16.31-16.3 16.3 16.3 0 0 0-16.3 16.3v47.9m132.2-17.3V105.4a32.41 32.41 0 1 0-64.82.02v49.82m-51.1-47.93V94m167 13.3V94M250 73V59.7m-99.8 64.9h32.6m34.78-19.2h64.82m34.78 19.2h32.6m-88.36 112.75a11.63 11.63 0 0 0-11.63-11.63 11.64 11.64 0 0 0-11.64 11.63v29.52h23.27zm9.94 159.76a21.38 21.38 0 0 0-42.76 0v54.22h42.76zm31.84 54.22v-47.58A18.75 18.75 0 0 0 284.46 385m1.82-116.57v-23.65a11.64 11.64 0 0 0-11.63-11.64m-49.2 0a11.64 11.64 0 0 0-11.63 11.64v23.65m2 116.57a18.75 18.75 0 0 0-18.76 18.75v47.58M130 307.76h14.6m-14.6 30.1h14.6M130 368h14.6M130 398.07h14.6m-14.6 30.1h14.6m210.8-120.4H370m-14.6 30.1H370M355.4 368H370m-14.6 30.1H370m-14.6 30.1H370M150.2 196.7h13.2m-13.2 27h13.2m-13.2 27h13.2m173.2-53.95h13.2m-13.2 27h13.2m-13.2 27h13.2" fill="none" stroke="#000" stroke-linecap="round" stroke-linejoin="round" stroke-width="9"/></svg>