<svg xmlns="http://www.w3.org/2000/svg" viewBox="0 0 500 500"><path d="M312.28 451.33h-20V129.05h20zM201.8 128.6h-20v322.72h20zm-71.75 115.53h-18v38.43h18zm-7.8-37h-18v37h18zm97.55-50.63h-18v30.13h18zm110.48 50.63h-18v112h18zm-228 75h-18l18 37.05h18z" fill="#e7eaf0"/><path d="M292.28 282.57v168.76h-21.12v-87.25A48.45 48.45 0 0 0 247 322.19a48.43 48.43 0 0 0-24.13 41.89v87.25H201.8V282.57zm-180.23 36.05v132.7h17.58V388.8a34.72 34.72 0 0 1 17.29-30 34.7 34.7 0 0 1 17.29 30v62.54h17.6v-132.7zm200.23 0v132.7h17.58V388.8a34.72 34.72 0 0 1 17.29-30 34.71 34.71 0 0 1 17.3 30v62.54H382v-132.7zm-10-218a10 10 0 0 0-10 10v17.52h20v-17.48a10 10 0 0 0-10-10zm-110.48 0a10 10 0 0 0-10 10v17.52h20v-17.48a10 10 0 0 0-10-10z" fill="#42c8b7"/><path d="M130.05 451.33h-18v-133h18zm89.75-168.76h-18v168.76h18zm110.48 35.7h-18v133.05h18z" fill="#1abea3"/><path d="M181.8 244.35h-77.55V207.1h77.55zm208-37.26h-77.52v37.26h77.54zM90.6 451.33H409.4m-217.6-351a10 10 0 0 0-10 10v341h20v-341a10 10 0 0 0-10-10zm110.48 0a10 10 0 0 0-10 10v341h20v-341a10 10 0 0 0-10-10zm-190.23 351h69.75v-132.7h-69.75zm69.75-207h-69.75v38.22h69.75zm110.48-57.56H201.8v264.56h90.48zM382 318.62h-69.72v132.7H382zm-69.75-36.05H382v-38.22h-69.72zM181.8 207.1h-77.55v37.26h285.57V207.1h-77.54m-20 111.53h99.82l17-36.05H85l17 36.05h99.8m-20-162.16h130.48M191.8 100.33V90.7m110.48 9.64V90.7M232 264.34v18.23m-101.37-56.85v16.1m26.08-16.1v16.1m181.65-16.1v16.1m26.1-16.1v16.1m-102.33 22.5v18.23M247 322.2a48.43 48.43 0 0 0-24.13 41.89v87.25h48.25v-87.25A48.45 48.45 0 0 0 247 322.19zm-100.08 36.57a34.72 34.72 0 0 0-17.29 30v62.54h34.58v-62.5c0-12.38-6.2-24.55-17.3-30.03zm200.23 0a34.72 34.72 0 0 0-17.29 30v62.54h34.6v-62.5a34.71 34.71 0 0 0-17.3-30.03zM181.8 129.05h20m90.48 0h20" fill="none" stroke="#000" stroke-linecap="round" stroke-linejoin="round" stroke-width="9"/><circle cx="222.91" cy="302.76" r="5"/><circle cx="271.16" cy="302.76" r="5"/></svg>