<svg xmlns="http://www.w3.org/2000/svg" viewBox="0 0 500 500"><path d="M124.7 451.3h-16.4V294.8h16.4v156.5zm150.5-156.5h-16.4v156.5h16.4V294.8z" fill="#1abea3"/><path d="M286.6 294.8h-16.4V147.9h16.4v146.9zM137 147.9h-16.4v146.9H137V147.9zm21.6-35.3h-16.4V129h16.4v-16.4zm-10.2 16.3H132v16.4h16.4v-16.4zm159.8-16.3h-16.4V129h16.4v-16.4zM298 128.9h-16.4v16.4H298v-16.4z" fill="#e7eaef"/><path d="M242.1 451.3H108.3V294.8H242v156.5zm149.6-156.5H257.9v156.5h133.7V294.8zM208.1 112.6l-32.9-31.7-32.9 31.7h65.8zm149.9 0l-32.9-31.7-32.9 31.7H358z" fill="#42c8b7"/><path d="M90.6 451.3h318.8M229.8 145.5H120.6v149.4h109.1V145.5zm12.3 149.3H108.3v156.5H242V294.8zm-23.7-165.9H132v16.4h86.4v-16.4zm-10.3-16.3h-65.9V129h65.9v-16.4zm0 0l-32.9-31.7-32.9 31.7m32.9-59.1v27.3m-33 92.2v8.6m16.6-8.6v8.6m16.6-8.6v8.6M192 173v8.6m16.6-8.6v8.6m-66.4 19.9v8.6m16.6-8.6v8.6m16.6-8.6v8.6m16.6-8.6v8.6m16.6-8.6v8.6m-66.4 19.8v8.6m16.6-8.6v8.6m16.6-8.6v8.6m16.6-8.6v8.6m16.6-8.6v8.6m-66.4 19.9v8.6m16.6-8.6v8.6m16.6-8.6v8.6m16.6-8.6v8.6m16.6-8.6v8.6m-66.4 85.6v8.6m16.6-8.6v8.6m16.6-8.6v8.6m16.6-8.6v8.6m16.6-8.6v8.6m-66.4 19.9v8.6m16.6-8.6v8.6m16.6-8.6v8.6m16.6-8.6v8.6m16.6-8.6v8.6m-66.4 19.9v8.6m16.6-8.6v8.6m16.6-8.6v8.6m16.6-8.6v8.6m16.6-8.6v8.6m-66.4 19.9v8.6m16.6-8.6v8.6m16.6-8.6v8.6m16.6-8.6v8.6m16.6-8.6v8.6m170.8-301.2H270.2v149.4h109.1V145.5zm12.3 149.3H257.9v156.5h133.7V294.8zM368 128.9h-86.4v16.4H368v-16.4zm-10.2-16.3h-65.9V129h65.9v-16.4zm0 0l-32.9-31.7-32.9 31.7m32.8-59.1v27.3M291.9 173v8.6m16.6-8.6v8.6m16.6-8.6v8.6m16.6-8.6v8.6m16.6-8.6v8.6m-66.4 19.9v8.6m16.6-8.6v8.6m16.6-8.6v8.6m16.6-8.6v8.6m16.6-8.6v8.6m-66.4 19.8v8.6m16.6-8.6v8.6m16.6-8.6v8.6m16.6-8.6v8.6m16.6-8.6v8.6m-66.4 19.9v8.6m16.6-8.6v8.6m16.6-8.6v8.6m16.6-8.6v8.6m16.6-8.6v8.6m-66.4 85.6v8.6m16.6-8.6v8.6m16.6-8.6v8.6m16.6-8.6v8.6m16.6-8.6v8.6m-66.4 19.9v8.6m16.6-8.6v8.6m16.6-8.6v8.6m16.6-8.6v8.6m16.6-8.6v8.6m-66.4 19.9v8.6m16.6-8.6v8.6m16.6-8.6v8.6m16.6-8.6v8.6m16.6-8.6v8.6m-66.4 19.9v8.6m16.6-8.6v8.6m16.6-8.6v8.6m16.6-8.6v8.6m16.6-8.6v8.6" fill="none" stroke="#000" stroke-width="9" stroke-linecap="round" stroke-linejoin="round" stroke-miterlimit="10"/></svg>