<svg xmlns="http://www.w3.org/2000/svg" viewBox="0 0 500 500"><path d="M130.3 410.93h16v40.4h-16z" fill="#e7eaf0"/><path d="M166.9 408.45v-15.82a223.06 223.06 0 0 0 61.83-154.14v-14.64a194.14 194.14 0 0 0-42.45-121.14l11.53-9.36" fill="none" stroke-linecap="round" stroke-linejoin="round" stroke-width="9" stroke="#e7eaf0"/><path d="M341.56 409.93v-17.3a223.06 223.06 0 0 1-61.83-154.14v-14.64a194.08 194.08 0 0 1 42.45-121.14l-15.24-12.38-46.94 24.1v295.5z" fill="#42c8b7"/><path d="M260 110.58h10.2v299.35H260z" fill="#1abea3"/><path d="M90.6 451.33H409.4m-39.68-40.4H130.3v40.4H369.7zM260 90.33h-20v319.6h20zm-101.56 319.6v-17.3a223.06 223.06 0 0 0 61.83-154.14v-14.64a194.08 194.08 0 0 0-42.45-121.14l15.24-12.38 46.94 24.1v295.5zm51.3-311l-20.18 20.18m12.26 22.2l30.68-30.68m7.5 27l-28.53 28.53m6.5 28l22-22m0 34.46l-19.73 19.73m-1.24 35.5l21-21m0 34.46l-30 30m30 4.47l-71.95 71.95M240 344.27l-65.67 65.66m34.45 0l31.22-31.2m20 31.2v-295.5l46.94-24.1 15.24 12.38a194.08 194.08 0 0 0-42.45 121.14v14.64a223.06 223.06 0 0 0 61.83 154.14v17.3zm47.5-319.16l-47.5 47.5m45.5-11.06l-45.5 45.5m0 34.46l24.05-24.06m-4.3 38.77L260 241.63m0 34.46l20.4-20.4m4.4 30.06l-24.8 24.8m32.4 2L260 345m42.6-8.15l-42.6 42.6m55-20.57l-51 51.05m65.48-31l-31 31" fill="none" stroke-linecap="round" stroke-linejoin="round" stroke-width="9" stroke="#000"/></svg>