<svg xmlns="http://www.w3.org/2000/svg" viewBox="0 0 212.51 242.26"><defs><style>.cls-1{isolation:isolate;}.cls-2{fill:#c0c7a9;}.cls-3{fill:#fff;}.cls-4{fill:#0b1017;}.cls-5{fill:#603480;}.cls-6{fill:#924fc2;}.cls-7{fill:#dce1cb;}.cls-8{fill:#ff4555;}.cls-25,.cls-9{fill:#9e2e3b;}.cls-10{fill:#60c1d2;}.cls-11{fill:#706f6f;}.cls-12{fill:#2d2856;}.cls-13{fill:#a263c7;}.cls-13,.cls-15,.cls-23,.cls-25{mix-blend-mode:multiply;}.cls-14,.cls-15{fill:#d6eeeb;}.cls-16{fill:#ffae80;}.cls-17{fill:#40274f;}.cls-18{fill:#c43e3d;}.cls-19{fill:#9d9d9c;}.cls-20{fill:gray;}.cls-21,.cls-23{fill:#ffd88f;}.cls-22{fill:#291933;}.cls-23,.cls-25{opacity:0.5;}.cls-24{fill:#201c3d;}.cls-26{fill:#a1241d;}.cls-27{fill:#a1d4cd;}.cls-28{fill:#1d1d1b;}.cls-29{fill:#1d71b8;}.cls-30{fill:#f69a62;}.cls-31{fill:#b2b2b2;}</style></defs><g class="cls-1"><g id="Layer_2" data-name="Layer 2"><g id="Layer_1-2" data-name="Layer 1"><polygon class="cls-2" points="203.09 64.62 126.48 20.03 126.48 124.21 203.09 168.8 203.09 64.62"/><ellipse class="cls-3" cx="163.95" cy="78.65" rx="15.65" ry="27.67" transform="translate(-14.35 114.34) rotate(-36.95)"/><path class="cls-4" d="M150.27,168.2a11.67,11.67,0,0,0-.2,3.08c.2.93,2.65,1.52,2.65,1.52s2.08,2.53,5,2.31c1.73-.14,2.31-.59,2.58-1.1a1.64,1.64,0,0,0-.32-1.62c-.34-.47-2.55-1.28-3.44-2.7-.44-.69-1.16-2.15-1.16-2.15l-.09-.78a2.26,2.26,0,0,0-2.15-2,2.45,2.45,0,0,0-2.59,2.62l0,.48Z"/><path class="cls-4" d="M141.33,172.79a9.18,9.18,0,0,0-.39,3.51,3.66,3.66,0,0,0,2,1.95s.64,3,4.65,3.1c3.76.09,3.73-1.43,3.71-1.43a2.27,2.27,0,0,0-.86-1.59,32.59,32.59,0,0,1-3-2.79,8,8,0,0,1-.9-1.66l-.16-2.71h-5.07Z"/><path class="cls-5" d="M155.06,127.58l-7.3,8.73c.37,2.75,1,8.24,1.59,10.83-1.31,10-.43,21,.38,21.59,1.13.93,5,1.78,6.57-.56a110.84,110.84,0,0,1,.31-22.29Z"/><path class="cls-6" d="M155.06,127.58c0,4-.94,6.06-4.91,8.26l-1.29,8.79-.89,6.15A232.57,232.57,0,0,0,146.44,174c-1.71,2.36-6.49,1.35-6.6-.16-.67-9.1-.84-14.32.73-22.33a59.39,59.39,0,0,1-.91-14.83,16,16,0,0,1-.16-8.57L140,128l.37-.09,2.32-.57,1.06-.27,1.2-.29.72-.18,3.59-.88,3.08-.77,1.76-.44c.33-.08.56-.13.64-.16l.13,0H155c0,.07,0,.15,0,.22a.66.66,0,0,0,0,.15c0,.35,0,.68,0,1C155.06,126.37,155.07,127,155.06,127.58Z"/><polygon class="cls-7" points="0 93.49 126.48 20.03 126.48 124.21 0 197.67 0 93.49"/><polygon class="cls-3" points="46.33 80.78 12.58 100.39 12.58 160.49 46.33 140.89 46.33 80.78"/><polygon class="cls-2" points="40.49 137.15 40.49 116.24 18 129.31 18 150.22 40.49 137.15"/><polygon class="cls-8" points="29.25 96.42 18 102.95 18 122.97 29.25 116.44 29.25 96.42"/><polygon class="cls-9" points="42.95 88.56 31.7 95.09 31.7 115.11 42.95 108.58 42.95 88.56"/><polygon class="cls-3" points="80.23 63.05 57.02 76.53 57.02 117.86 80.23 104.38 80.23 63.05"/><polygon class="cls-8" points="61.01 94.07 61.01 110.92 76.23 102.08 76.23 85.23 61.01 94.07"/><polygon class="cls-10" points="76.23 81.53 76.23 69.99 61.01 78.83 61.01 90.37 76.23 81.53"/><polygon class="cls-3" points="113.15 44.59 89.94 58.07 89.94 99.4 113.15 85.92 113.15 44.59"/><polygon class="cls-7" points="93.93 82.86 93.93 92.46 109.16 83.62 109.16 74.02 93.93 82.86"/><polygon class="cls-6" points="100.28 56.68 93.93 60.37 93.93 80.17 100.28 76.48 100.28 56.68"/><polygon class="cls-8" points="102.82 55.21 102.82 75.01 109.16 71.32 109.16 51.52 102.82 55.21"/><path class="cls-11" d="M98.23,163.9a.58.58,0,0,0,.58-.53l1.51-15.44,10.07-5.82,1.43,13.09a.6.6,0,0,0,.65.52.58.58,0,0,0,.51-.65l-1.63-14.86-12.14,7-1.56,16a.58.58,0,0,0,.52.64Z"/><path class="cls-8" d="M114,118.52a.51.51,0,0,0-.53,0,1.66,1.66,0,0,0-.75,1.18l-1.89,18.62a1.52,1.52,0,0,1-.66,1.06l-10.46,6.06A3.22,3.22,0,0,0,98.22,148v.26l14,8.11,13.12-8.77,2.58-21-14-8.08Z"/><path class="cls-12" d="M112.28,172a.58.58,0,0,0,.58-.52L114.37,156l10.07-5.82,1.43,13.09a.59.59,0,0,0,.65.52.58.58,0,0,0,.51-.65l-1.63-14.86-12.14,7-1.56,16a.58.58,0,0,0,.52.64Z"/><path class="cls-9" d="M112.28,156.34l14-8.1,1.89-21.05c.05-.53-.29-.77-.73-.52a1.69,1.69,0,0,0-.75,1.18l-1.9,18.63a1.51,1.51,0,0,1-.65,1.05l-10.46,6.06a3.18,3.18,0,0,0-1.43,2.49Z"/><path class="cls-4" d="M98.08,165.26a3.94,3.94,0,0,1,.56,3.34A2.64,2.64,0,0,1,97,170a13.16,13.16,0,0,0-2.07,1c-2,2.07-3.84,2.32-4.52,2.07-2.3-.85.16-2.82.83-3.31.19-.14,2.75-2.57,2.75-2.57l.61-1-.07-2.1,3.33-1Z"/><path class="cls-6" d="M91.21,150.05c.44,5.21,2.07,9.13,3.36,16.13a3.4,3.4,0,0,0,2.8.61,1.66,1.66,0,0,0,1.09-1.26c.21-6,.15-10.58-1.49-14.44,5-2.2,11.63-2.9,15.72-6.32,1.59-1.37,2.79-2.64,3.16-3.88a2.6,2.6,0,0,0-.09-1.86,4.1,4.1,0,0,0-.64-1l-1.31-.93-5.62-.8c-.72.38-1.51.81-2.36,1.3C99.76,141.08,91.18,146.83,91.21,150.05Z"/><path class="cls-13" d="M97,166.65l.4.14a1.66,1.66,0,0,0,1.09-1.26c.21-6,.15-10.58-1.49-14.44,5-2.2,11.63-2.9,15.72-6.32,1.59-1.37,2.79-2.64,3.16-3.88l-.09-1.86a4.1,4.1,0,0,0-.64-1l-1.31-.93-5.62-.8c-.72.38-1.51.81-2.36,1.3-.42,5.29-5.57,9-11.28,12.56C96.69,155.12,97.3,160.69,97,166.65Z"/><path class="cls-4" d="M107.18,170.39c.68.69.7,2,.56,3.34a3.77,3.77,0,0,1-2.13,1.47s-3.18,3-6.21,2.57,0-2.62,0-2.62l3.49-3,.68-.93,0-2,3.33-1Z"/><path class="cls-6" d="M98.87,153.9c.44,5.2,3.41,10.28,4.7,17.28,1.17.89,2.2,1,3,.11a4.37,4.37,0,0,0,.64-1c.2-6-.21-11.23-1.85-15.09a51.17,51.17,0,0,0,13-7.8,6.35,6.35,0,0,0,.67-8.77l-.56-.09h-.11l-9.19,1.9-1.52,1.72c-.68.77-1.37,1.54-2,2.31C102.33,148.25,99.31,151.86,98.87,153.9Z"/><path class="cls-13" d="M106,171.51l.58-.22a4.37,4.37,0,0,0,.64-1c.2-6-.21-11.23-1.85-15.09a51.17,51.17,0,0,0,13-7.8,6.35,6.35,0,0,0,.67-8.77l-.56-.09-10.82,3.61c-.68.77-1.37,1.54-2,2.31a74.93,74.93,0,0,0,9.14.17c-1.92,4-6.41,7.49-11.9,9.86C105.46,158.8,106.09,164.84,106,171.51Z"/><path class="cls-12" d="M70.53,176c-4.88,2.82-4.88,7.39,0,10.2s12.79,2.82,17.67,0,4.88-7.38,0-10.2S75.41,173.18,70.53,176Z"/><path class="cls-2" d="M70.53,174.74c-4.88,2.82-4.88,7.39,0,10.2s12.79,2.82,17.67,0,4.88-7.38,0-10.2S75.41,171.93,70.53,174.74Z"/><path class="cls-12" d="M76.62,178.26c-1.52.87-1.52,2.29,0,3.17a6,6,0,0,0,5.49,0c1.52-.88,1.52-2.3,0-3.17A6,6,0,0,0,76.62,178.26Z"/><path class="cls-2" d="M76.62,177.27c-1.52.88-1.52,2.3,0,3.17a6,6,0,0,0,5.49,0c1.52-.87,1.52-2.29,0-3.17A6.1,6.1,0,0,0,76.62,177.27Z"/><path class="cls-12" d="M77.25,176.9a1.29,1.29,0,0,0,0,2.44,4.68,4.68,0,0,0,4.22,0,1.29,1.29,0,0,0,0-2.44A4.68,4.68,0,0,0,77.25,176.9Z"/><rect class="cls-12" x="76.38" y="158.64" width="5.97" height="19.62"/><path class="cls-12" d="M61.68,146.44c-9.76,5.64-9.76,14.78,0,20.42s25.6,5.63,35.36,0,9.77-14.78,0-20.42S71.45,140.8,61.68,146.44Z"/><path class="cls-2" d="M61.68,145c-9.76,5.64-9.76,14.78,0,20.42s25.6,5.64,35.36,0,9.77-14.78,0-20.42S71.45,139.37,61.68,145Z"/><path class="cls-14" d="M93,138.32c.74-.35,1.26,0,1.59.81l.31-.18a43,43,0,0,0,8-6.15l1.41-4.92,1.77-6.12,1-1.87-1.77-1.34c-2.62-.39-3.48.83-4.06,3.68l-2.41,8.6A29.6,29.6,0,0,0,93,138.32Z"/><path class="cls-15" d="M94.93,139a43,43,0,0,0,8-6.15l1.41-4.92-2.11-4.13c-.52,3.44-1.95,5.86-2.08,8.94Z"/><path class="cls-4" d="M111.25,114.75c5.21,1.69,4.1,6.61,2.69,10.47l-3.68-3.46Z"/><path class="cls-14" d="M101.3,131.15v.09c.13,3,4.21,2.72,4.21,2.72l1.66,3.59c.41,5.2,9.41,6.52,11.94,1.06-1.82-2.58-1.82-2.58-2-4.35q.21-.7.36-1.38a12.31,12.31,0,0,0-1.07-9.13c-1.48-1.91-4.79-3.83-6.88-4.61l-6.11-.14-1.22,4.43C102.55,129,101.26,128.8,101.3,131.15Z"/><path class="cls-16" d="M110.56,118.11c.33,1.14,1.22,2.9,1.44,4,.25,1.34-2.22,3.43-3.88,3.31-1.17-.23-1.46-1.74-1.64-3.12Z"/><path class="cls-15" d="M109.71,119s1,8-2.88,7.35c-2.51-.43-2-4.58-2-4.58Z"/><path class="cls-16" d="M107.28,111.64c-3.85.54-5,2.8-4.66,5.87,0,2.57,2.19,6,3.68,5.92,2.14.12,3.18-2.37,5-5C112.72,114,110.87,111.15,107.28,111.64Z"/><path class="cls-4" d="M102.67,117.6a7.22,7.22,0,0,0,3.69,1.71c1.35.56,2.66.5,3.19,1.26l1.57-.65c1.57-1.81,1.72-7-1-8.09C105.81,110.07,100.66,114.43,102.67,117.6Z"/><path class="cls-16" d="M109.61,119.77c.23-.94.89-1.56,1.45-1,.26.26.24.72,0,1.31a1,1,0,0,1-.84.73C109.69,120.87,109.42,120.5,109.61,119.77Z"/><path class="cls-15" d="M101.3,131.24c.13,3,4.21,2.72,4.21,2.72l1.66,3.59c.41,5.2,9.41,6.52,11.94,1.06-1.82-2.58-1.82-2.58-2-4.35q.21-.7.36-1.38L113.88,129l-2.1,4.71c-1.7,3.66-5.69,2.09-6-.86C105.18,133.79,102.14,133.57,101.3,131.24Z"/><polygon class="cls-8" points="94.51 154.35 105.81 147.83 98.3 143.31 90.22 139.38 78.57 145.22 87.29 149.54 94.51 154.35"/><polygon class="cls-17" points="88.14 150.35 87.33 150.07 86.53 149.45 86.57 149.14 87.29 149.54 88.06 150 88.14 150.35"/><polygon class="cls-17" points="86.58 149.57 78.59 145.65 78.57 145.22 86.57 149.14 86.58 149.57"/><polygon class="cls-17" points="88.05 150.41 94.5 154.76 94.51 154.35 88.06 150 88.05 150.41"/><path class="cls-17" d="M88.05,150.41c0,.45-1.47-.4-1.47-.84v-.38c0,.51,1.49,1.32,1.49.81Z"/><polygon class="cls-17" points="94.5 154.76 94.51 154.35 105.81 147.83 105.79 148.24 94.5 154.76"/><polygon class="cls-3" points="79.66 145.19 87.01 148.83 97.58 143.59 90.23 139.95 79.66 145.19"/><path class="cls-16" d="M94.52,138.73a5.92,5.92,0,0,1,.29,1.76l-.25.9-.55,1c-.29.5-.68.23-.47-.3l.39-.82v-.73l-1.22,1.31-1,1.63c-.35.35-.47.2-.5-.17l-.36.45a.31.31,0,0,1-.55-.28l-.13.12c-.29.36-.68,0-.46-.38l.17-.3c-.36.24-.34-.16,0-.67l1-1.8a7.8,7.8,0,0,1,2.3-2.12A1.16,1.16,0,0,1,94.52,138.73Z"/><path class="cls-16" d="M102.73,144.77a4.28,4.28,0,0,1-2,2.27l-2,1.28c-.59.18-.63-.07-.45-.49l-.82.56c-.55.34-1,0-.74-.45l-.53.23c-.51.14-.72-.15-.23-.72l.32-.3c-.46.22-.93,0-.33-.61a21.43,21.43,0,0,1,3.16-2.95,7,7,0,0,1,2.55-.69l1.73-.56.87,1.59Z"/><path class="cls-14" d="M116.43,123.75c1.77,1.47,2.24,2.94,1.92,6.07a29.47,29.47,0,0,1-3.67,11.74c-3.06,1.67-7.36,2.54-12,3.21a1.61,1.61,0,0,0-1-1.87c4.12-2,8.62-4.72,10.3-4.59a42.75,42.75,0,0,1,1.48-9.76C114.09,126.26,115,124.47,116.43,123.75Z"/><polygon class="cls-8" points="40.87 184.64 47.35 173.42 61.64 181.67 49.45 189.59 40.87 184.64"/><path class="cls-12" d="M47.94,206.75a.58.58,0,0,0,.58-.53L50,190.77,60.1,185l1.43,13.09a.6.6,0,0,0,.65.52.58.58,0,0,0,.51-.65l-1.63-14.87-12.14,7-1.56,16.05a.58.58,0,0,0,.52.64Z"/><path class="cls-9" d="M50.23,187.81l10.45-6c.8-.46,1.44-.09,1.44.83v.26l-14,8.06,1.52-3.18C49.79,187.91,50,187.94,50.23,187.81Z"/><path class="cls-12" d="M32.21,197.67a.59.59,0,0,0,.58-.53l1.5-15.45,10.07-5.81L45.8,189a.57.57,0,0,0,.64.52.58.58,0,0,0,.52-.64L45.33,174l-12.14,7L31.62,197a.58.58,0,0,0,.53.63Z"/><path class="cls-18" d="M31.73,161.62a.54.54,0,0,0-.53,0,1.61,1.61,0,0,0-.74,1.38l1.89,18.86,14-8.1v-.27c0-.91-.64-1.28-1.43-.83l-10.46,6c-.33.2-.61.07-.66-.29L31.94,162A.53.53,0,0,0,31.73,161.62Z"/><path class="cls-8" d="M47.47,170.71l-15.74-9.09a.54.54,0,0,0-.53,0,1.61,1.61,0,0,0-.74,1.38l1.89,18.86L48.08,191Z"/><path class="cls-9" d="M46.19,172.14a1.59,1.59,0,0,1,.73-1.37c.39-.23.7-.09.75.31l1.9,16.44a.39.39,0,0,0,.11.25L48.16,191l-.08,0Z"/><polygon class="cls-9" points="134.45 153.84 156.38 166.5 156.38 195.77 134.45 183.11 134.45 153.84"/><polygon class="cls-7" points="181.17 126.86 203.09 139.53 156.38 166.5 134.45 153.84 181.17 126.86"/><polygon class="cls-8" points="203.09 168.8 203.09 139.53 156.38 166.5 156.38 195.77 203.09 168.8"/><polygon class="cls-9" points="200.37 141.32 197.66 139.75 197.66 64.62 200.37 66.19 200.37 141.32"/><polygon class="cls-19" points="203.09 64.62 200.37 66.19 197.66 64.62 200.37 63.05 203.09 64.62"/><polygon class="cls-8" points="200.37 141.32 203.09 139.75 203.09 64.62 200.37 66.19 200.37 141.32"/><polygon class="cls-9" points="76.61 242.26 73.89 240.69 73.89 136.51 76.61 138.07 76.61 242.26"/><polygon class="cls-19" points="79.33 136.51 76.61 138.07 73.89 136.51 76.61 134.94 79.33 136.51"/><polygon class="cls-8" points="76.61 242.26 79.33 240.69 79.33 136.51 76.61 138.07 76.61 242.26"/><path class="cls-20" d="M126.48,20,0,93.49l76.61,44.59L203.09,64.62ZM3.44,93.49,126.48,22l73.17,42.59-123,71.46Z"/><path class="cls-7" d="M126.48,0,0,73.46,76.61,118,203.09,44.58ZM3.44,73.46,126.48,2l73.17,42.58-123,71.47Z"/><polygon class="cls-8" points="203.09 64.62 76.61 138.07 76.61 118.04 203.09 44.59 203.09 64.62"/><polygon class="cls-3" points="192.32 64.13 192.32 58.14 102.82 110.12 102.82 116.11 192.32 64.13"/><polygon class="cls-8" points="126.48 22.03 20.68 83.47 3.44 73.46 126.48 2 126.48 22.03"/><polygon class="cls-9" points="0 93.49 76.61 138.07 76.61 118.04 0 73.46 0 93.49"/><polygon class="cls-9" points="126.48 22.03 182.41 54.6 199.66 44.59 126.48 2 126.48 22.03"/><polygon class="cls-21" points="189.8 144.67 192.53 144.41 192.15 143.63 190.41 142.31 189.8 144.67"/><polygon class="cls-22" points="194.36 149.16 188.54 139.61 182.43 142.57 188.25 152.12 194.36 149.16"/><polygon class="cls-3" points="187.94 150.98 193.48 148.3 188.42 140.02 182.88 142.7 187.94 150.98"/><path class="cls-16" d="M188.35,142.07l1.1-.2a2.46,2.46,0,0,0,1.75,1.41l.58.2a4,4,0,0,1,.49-.92,2,2,0,0,0-1-1.59l-1.69-.3-2.05.74C187.5,141.86,187.68,142.07,188.35,142.07Z"/><path class="cls-22" d="M187.69,150.66h.13a.35.35,0,0,0,.27-.42l-1.81-8.41a.35.35,0,0,0-.69.15l1.81,8.41A.35.35,0,0,0,187.69,150.66Z"/><path class="cls-16" d="M183.9,146.56c-.05.32.17.56.16.79s0,.25,0,.41,0,.21,0,.27c0,.55,1.25,1.35,1.65,1.59l1.59.76,1.9,1.69.39-.65.92-1.41L189,148.29a5.14,5.14,0,0,0-.13-2.41l-.74-.89-1.35-.66.13.59a11.67,11.67,0,0,0-1.11-.66c-.26-.14-.72-.22-.91,0s-.06.36-.13.49-.43.29-.5.44,0,.52,0,.67S184,146.21,183.9,146.56Z"/><polygon class="cls-23" points="186.86 144.51 188.24 145.68 186.95 144.92 186.86 144.51"/><path class="cls-23" d="M184,147.76c0,.11,0,.21,0,.27,0,.55,1.25,1.35,1.65,1.59l1.59.76,1.9,1.69.39-.65a7.51,7.51,0,0,1-2-2C186.16,149.42,184.53,148.85,184,147.76Z"/><path class="cls-14" d="M194.74,151.89c3.36,1.82,15.42,3,16.43-.64,3.07-10.05.23-15.73-2.13-16.82C209,134.43,193.63,152.22,194.74,151.89Z"/><path class="cls-4" d="M190.37,202.26c0-1.36,1-1.88,2.59-2a32,32,0,0,1,5.57,1.15l2.73,1.5a6.16,6.16,0,0,1,.2,3.79,3,3,0,0,1-2.64.83l-3.07-1.3-.22-.44C193.09,205.48,190.37,204.37,190.37,202.26Z"/><path class="cls-4" d="M200.32,196.83c0-1.11,1-1.3,2.47-1.41,2.67,0,2.79,1.34,5.24,1.28l2.42,1.46a7.27,7.27,0,0,1,.1,4.07,3.48,3.48,0,0,1-2.69.65l-2.48-1.46-.21-.45C202.84,200.62,200.32,198.89,200.32,196.83Z"/><path class="cls-24" d="M209.07,159.09l-8.9,3.72a31.8,31.8,0,0,0,.18,4.16c.56,4.1,2.21,10.3,2.21,10.3a107.62,107.62,0,0,1,1.95,18.7c.05,2.48,3.74,4.66,6.11,2.31.68-8.41.67-16.58-1.31-22,.95-4.28.07-9.12-.19-14C209.17,161.61,208.82,159.19,209.07,159.09Z"/><path class="cls-12" d="M192.83,171.78c.34,4.09,1.64,10.28,1.64,10.28l.91,18.67a2.94,2.94,0,0,0,1.16,2.86,3.62,3.62,0,0,0,4.81-.66c1.15-8.4,1.61-16.45-.07-21.85,1.18-4.27,1.13-8.24,1.13-13.15,2.74-1.12,7-2.71,6.8-7a21.16,21.16,0,0,0-.72-4.79c-.08-.3-.16-.6-.26-.89s-.14-.44-.22-.67c-1.52,3-6.38,4.92-11.68,4.26l-.69-.11a15.24,15.24,0,0,1-1.7-.37s0,.31-.12.82-.14,1-.22,1.66A66.56,66.56,0,0,0,192.83,171.78Z"/><path class="cls-13" d="M192.83,171.78a101.89,101.89,0,0,0,1.65,10.28l.9,18.68a2.92,2.92,0,0,0,1.17,2.85c-.81-7.86-1.17-15.22,0-20.92-1.75-6.47-1.86-13.9.15-18.89,0-2-.92-3.15-.5-4.6a22.31,22.31,0,0,1-2.25-.85S192.5,167.69,192.83,171.78Z"/><path class="cls-8" d="M208.87,154.78a6.14,6.14,0,0,0,0,2.89,8.35,8.35,0,0,1,.31,2.63c-1.76,2.48-6.25,4.7-10.88,3.94-.25-.1-.87-.26-1.6-.46l-.12,0-1.61-.44-.21-.06-.53-.16-.61-.19-.23-.08-.17-.07s.25-3.85.21-3.87c-.3-3.34-.29-4.76-.49-9,0-.15,0-.3,0-.45a7.19,7.19,0,0,0-.08-1.37c-1.42-5.73-.46-6.34,1.06-7.3,4.91-3.12,8.76-7.1,15.13-6.37C213.89,139.07,209,154.35,208.87,154.78Z"/><path class="cls-21" d="M196.52,132.48c-.32-.35.16-1.15.51-1.27s.76.55.81.93a1.78,1.78,0,0,1-.29,1.35c-.33.49-.85,0-1-.39S196.71,132.7,196.52,132.48Z"/><path class="cls-16" d="M203.83,134.85l-2.17-3.76-5.92,2.9,2.29,4.24C200.17,138.23,204.56,136.26,203.83,134.85Z"/><path class="cls-16" d="M197.69,135.81a1.16,1.16,0,0,1-1.95.3c-1.23-1.12-3.23-4.8-2.56-7.75s5.63,1,5.63,1Z"/><path class="cls-4" d="M202.9,133.38a20.7,20.7,0,0,0-4.21,1.92,1.28,1.28,0,0,1-1.46-.06l-.76-.58-.54-1.64-1.19-.48.08-1.23A3.94,3.94,0,0,1,193,130c-1.59-2.76,1.75-5.8,5.38-5.55C203.05,124.73,204.19,129.69,202.9,133.38Z"/><path class="cls-16" d="M195.17,133a1.53,1.53,0,0,1,0-.52.61.61,0,0,1,.25-.45.67.67,0,0,1,.86.25,2.06,2.06,0,0,1,.24,1c0,.24,0,.48.05.72a1.65,1.65,0,0,1,0,.59.51.51,0,0,1-.44.36.48.48,0,0,1-.37-.21,1.2,1.2,0,0,1-.18-.4A9.38,9.38,0,0,1,195.17,133Z"/><path class="cls-25" d="M196.7,163.78l-.12,0c-.55-.15-1.11-.29-1.61-.44l-.21-.06-.53-.16-.61-.19-.23-.08-.17-.07s.25-3.85.21-3.87c-.3-3.34-.29-4.76-.49-9l4.21-3.57A33.26,33.26,0,0,1,196.7,163.78Z"/><path class="cls-14" d="M192.68,141.79c-2.08,1.3-2.25,2.77-2.25,6l.14,1.91L189,148.29c-1.56-.1-2.26.69-2.1,2.61.55,3.22,2.14,6.77,4.74,7.68,1.44.51,2.94-.13,3.67-3l1.76-7.22C197.37,143.59,196.4,141,192.68,141.79Z"/><path class="cls-14" d="M204,134.94l-.59-.84c-.38,1-2.37,2.17-5.93,3.1l.07,1.13C200.77,138.9,204.72,136.35,204,134.94Z"/><path class="cls-14" d="M164.65,121.34l-3.49-9.64c-.57-3.8-2.82-4.54-4.7-5.18l-1.31,6.71,1.29,2.63,3.93,8c.55,1.23,1.17,2.46,1.83,3.7l3.76-3.15C165.55,123.4,165.11,122.37,164.65,121.34Z"/><path class="cls-15" d="M160.68,121l-1.48-9.28-2.76,4.16,3.93,8c.55,1.23,1.17,2.46,1.83,3.7l.82-.69A41.7,41.7,0,0,1,160.68,121Z"/><path class="cls-14" d="M159.69,113.75c0,9.28-6,15.24-6,15.52-.55.42-1.09.79-1.6,1.11-9.21,5.85-12.57-2.25-12.57-2.25.42-3-.82-5.26-.34-9.44,0-.18.05-.35.07-.53a9.59,9.59,0,0,1,7.15-8.4,6.44,6.44,0,0,0,2.87-1.55c2.06-1.95,3.7-2.25,6.68-1.9C158.48,107.74,159.61,110.32,159.69,113.75Z"/><path class="cls-15" d="M152.07,130.38c-9.21,5.85-12.57-2.25-12.57-2.25.42-3-.82-5.26-.34-9.44.46-3,2.49-3.41,5.47-2.16l3.75,7.78Z"/><polygon class="cls-26" points="153.21 113.99 153.72 115.62 154.66 115.28 154.66 113.44 153.72 112.8 153.21 113.99"/><path class="cls-8" d="M153.72,115.62a117.4,117.4,0,0,1,0,13.53l1.52,1.45,1.05-2.38a97.76,97.76,0,0,0-1.64-12.94Z"/><path class="cls-16" d="M151.12,106.1c-.11,0-1.91,2.23-1.91,2.23-2.4,1.37.68,6.43,4,5.91l2.72-1.89Z"/><path class="cls-27" d="M149.76,107.66a17.87,17.87,0,0,0-1.9,1.47s1.32,6.15,5.35,6.49a11,11,0,0,1,.72-1.91C151.44,113.33,149.76,109.54,149.76,107.66Z"/><path class="cls-27" d="M153.93,113.71l1.48,1.41s1.42-5.78.17-7S153.93,113.71,153.93,113.71Z"/><path class="cls-15" d="M157.36,110.69c0,2.42-.67,6.63-2.31,6.35-2.28.42-3.17-6.35-2.32-8.13Z"/><path class="cls-16" d="M155.12,100c-2.94,0-4.62,1.42-4.73,4.49.08,3.23.24,5.18,1.8,7.38a4.66,4.66,0,0,0,3.79,2c1.79-.09,4.44-4.38,4.69-7.49C161.11,103.28,158.43,100.87,155.12,100Z"/><path class="cls-4" d="M160.31,108.68c-.67,1.57-4.57,1.28-6.29-.64l-.19,1.15-1.57-1.31-1.38,1.79-.49-.71a6.57,6.57,0,0,1,2.37-8.7C157.52,98.35,163.42,103.88,160.31,108.68Z"/><path class="cls-16" d="M151.82,109.23a2.45,2.45,0,0,1-.39-1,1.13,1.13,0,0,1,.34-1,.83.83,0,0,1,1,0,.87.87,0,0,1,.29.68,2.36,2.36,0,0,1-.14.74c-.06.22-.12.44-.19.66a.57.57,0,0,1-.24.39.41.41,0,0,1-.42-.06A.84.84,0,0,1,151.82,109.23Z"/><polygon class="cls-3" points="156.99 143.97 165.69 138.94 178.1 146.1 169.4 151.13 156.99 143.97"/><polygon class="cls-28" points="169.33 149.65 175.63 146.02 176 146.24 169.71 149.87 169.33 149.65"/><polygon class="cls-28" points="168.3 149.06 174.59 145.43 174.83 145.56 168.53 149.19 168.3 149.06"/><polygon class="cls-28" points="167.68 148.7 173.97 145.07 174.2 145.2 167.91 148.83 167.68 148.7"/><polygon class="cls-28" points="167.06 148.34 173.35 144.71 173.58 144.84 167.29 148.47 167.06 148.34"/><polygon class="cls-28" points="165.81 147.62 172.11 143.99 172.34 144.12 166.04 147.75 165.81 147.62"/><polygon class="cls-28" points="165.19 147.26 171.48 143.63 171.72 143.76 165.42 147.4 165.19 147.26"/><polygon class="cls-28" points="168.45 144.66 170.86 143.27 171.09 143.4 168.68 144.79 168.45 144.66"/><polygon class="cls-28" points="163.94 146.54 170.24 142.91 170.47 143.04 164.18 146.68 163.94 146.54"/><polygon class="cls-28" points="163.32 146.18 169.62 142.55 169.85 142.68 163.56 146.32 163.32 146.18"/><polygon class="cls-28" points="164.18 144.97 168.99 142.19 169.23 142.32 164.41 145.11 164.18 144.97"/><polygon class="cls-28" points="164.32 142.73 167.13 141.11 167.36 141.25 164.55 142.87 164.32 142.73"/><polygon class="cls-28" points="163.7 142.38 166.5 140.75 166.74 140.89 163.93 142.51 163.7 142.38"/><path class="cls-29" d="M164.32,143.54a.5.5,0,0,0,0,.12.72.72,0,0,0,.11.34c0,.08.08.23.24.26a.12.12,0,0,0,0-.17l-.13-.27c-.05-.1-.11-.19-.17-.29a.61.61,0,0,1,.41-.39s0,0,0,0a.63.63,0,0,0-.42.37l-.11-.13c-.27-.3-.64-.58-.74-.93a.47.47,0,0,1,.08-.45.65.65,0,0,1,.59-.25.32.32,0,0,1,.28.45,1.1,1.1,0,0,1-.33.4s0,0,0,0c.25-.22.54-.54.25-.79a.58.58,0,0,0-.52-.06.57.57,0,0,0-.38.3c-.18.3,0,.62.28.89s.31.32.46.48A1.47,1.47,0,0,1,164.32,143.54Zm.23.42c0,.08.13.18.09.27a.27.27,0,0,1-.14-.14.91.91,0,0,1-.07-.14.75.75,0,0,1-.09-.29.25.25,0,0,1,0-.08A2.75,2.75,0,0,1,164.55,144Z"/><path class="cls-29" d="M161.9,144.68c.44-.09.67-.36.54-.63h-.15a.11.11,0,0,0,0-.11l0-.16a1.69,1.69,0,0,0,.27.12.11.11,0,0,0,.14,0s0-.11,0-.17.2.1.29,0,.05-.17,0-.23a5.14,5.14,0,0,0,.82.61.43.43,0,0,0-.17-.31,2.27,2.27,0,0,1-.31-.4,1.18,1.18,0,0,1-.11-.19c0-.06-.08-.14,0-.21a.55.55,0,0,0,.11.23.8.8,0,0,0,.2.21.5.5,0,0,0,.23.12c.19,0,.12-.2.1-.25a.89.89,0,0,0-.36-.36.22.22,0,0,0-.22,0,.15.15,0,0,1,.09-.08.21.21,0,0,1,.22,0,.73.73,0,0,1,.2.19c.06.06.2.19.1.25s0,0,0,0a.08.08,0,0,0,0-.13,1.57,1.57,0,0,0-.2-.25.37.37,0,0,0-.44-.12.17.17,0,0,0-.08.11.16.16,0,0,0-.06.08c0,.07,0,.14.06.2a2,2,0,0,0,.17.27,1.93,1.93,0,0,0,.22.28.76.76,0,0,1,.21.28,4.4,4.4,0,0,1-.89-.73.76.76,0,0,0-.11-.14s0,0,0,0a.76.76,0,0,0,.11.14.51.51,0,0,1,.11.25.15.15,0,0,1,0,.09c0,.1-.23,0-.28,0a1.37,1.37,0,0,0-.22-.2.28.28,0,0,0,.15.19.47.47,0,0,1,0,.1.22.22,0,0,1,0,.08c0,.06-.08,0-.14,0l-.24-.12c0,.09,0,.19,0,.27s-.15,0-.18,0h-.05a.42.42,0,0,0,.35.06c.11.25-.11.5-.52.59C161.86,144.67,161.87,144.69,161.9,144.68Zm1.35-1.69c.16-.12.41.14.47.2a.75.75,0,0,1,.1.17.38.38,0,0,1,0,.1c0,.12-.12.08-.16.06a.85.85,0,0,1-.36-.34A.7.7,0,0,1,163.25,143Z"/><polygon class="cls-30" points="154.53 141.36 155.69 142.56 157.59 139.51 155.91 138.73 154.53 141.36"/><path class="cls-16" d="M160.61,140.36a2.12,2.12,0,0,0-.08,1.37l-.15.39-.13.36-.15.62a.79.79,0,0,1-.51.22l-.28.43c-.06.11-.21.14-.43.1l-.34.35c-.22.18-.78.07-1.44,0,0,0-1.17-.55-1.17-.55s-.35-.15-.42-.4,0-.42,0-.59-.31-.28-.31-.68.31-.48.34-.69-.16-.22,0-.71.54-.38.65-.59a2.6,2.6,0,0,1,.44-.94c.3-.31,1,0,1,0l.79.43,1.68-.19.18.08A.75.75,0,0,1,160.61,140.36Z"/><path class="cls-16" d="M158.57,139.64l1.26.15s0,1.34,0,1.23a7.34,7.34,0,0,0-.83-.94Z"/><path class="cls-28" d="M161.35,143.89l-4.89-6.27a.35.35,0,1,1,.55-.43l4.89,6.28c.11.15.41.79.26.91S161.47,144,161.35,143.89Z"/><path class="cls-16" d="M160.38,142.12l-.13.36-.15.62a.79.79,0,0,1-.51.22l-.28.43c-.06.11-.21.14-.43.1l-.34.35c-.22.18-.78.07-1.44,0a5.12,5.12,0,0,0,.82-2.5l-.7-1.06,2.79,1Z"/><path class="cls-16" d="M156.83,140.34l1.24,1,1.67.52c.65.21.91-.58.29-.9l-1.33-.55-1-1.28A.81.81,0,0,0,156.83,140.34Z"/><polygon class="cls-16" points="158.1 139.53 157.37 139.45 158.7 140.45 158.33 139.53 158.1 139.53"/><path class="cls-31" d="M162.23,144.52a.76.76,0,0,1-.13-.14s.05-.1.08-.06l.09.12a0,0,0,0,1,0,.07Z"/><path class="cls-14" d="M142,113.88c2.38.16,3.53,1.54,4.23,5.39l2.33,9.68c2.72,2.34,5.1,5.62,7.85,10a2.91,2.91,0,0,0-1.43,2.88,33.62,33.62,0,0,1-11-10.43C141.24,124.31,137.43,116.25,142,113.88Z"/><path class="cls-16" d="M173.32,138.28c.27.45-.21.95-.57.62l-.17-.08c.17.31-.3.86-.67.52l-.44-.41c0,.45-.19.67-.62.38l-1.27-1.56-1.51-1.12v.86l.47.85c.27.55-.21,1-.57.51l-.42-.59-.25-.34-.32-1a8.14,8.14,0,0,1,.37-2.19l-.51-.42,1.51-1.07.77.45a6.13,6.13,0,0,1,2.82,1.69l1.2,1.79c.39.49.41,1,0,.8Z"/><path class="cls-14" d="M162.2,127.58a63.54,63.54,0,0,0,5,7.86l.5-.61a2.36,2.36,0,0,1,1.58-1.09,58.75,58.75,0,0,0-3.27-9.31Z"/><path class="cls-15" d="M162.2,127.58a63.54,63.54,0,0,0,5,7.86l.5-.61a59.35,59.35,0,0,1-4.63-7.94Z"/><path class="cls-16" d="M171.91,139.34l-.44-.41c0,.45-.19.67-.62.38l-1.27-1.56-1.51-1.12v.86l.47.85c.27.55-.21,1-.57.51l-.42-.59c.24.29.49.51.72.47.1-.34-.19-.81-.48-1.28a2.92,2.92,0,0,0,.12-1.52,2.71,2.71,0,0,0,1.86,1.31,4.09,4.09,0,0,0,1.31,1.92c.23,0,.33-.23.36-.5a.94.94,0,0,0,.86.5l.28-.34C172.75,139.13,172.28,139.68,171.91,139.34Z"/><path class="cls-3" d="M97,116.34c0,2.92-2.37,6.65-5.29,8.34s-5.29.69-5.29-2.24,2.37-6.65,5.29-8.34S97,113.42,97,116.34Z"/></g></g></g></svg>