<svg xmlns="http://www.w3.org/2000/svg" viewBox="0 0 51.09 80.65"><defs><style>.cls-1{isolation:isolate;}.cls-2{fill:#9e2e3b;}.cls-3{fill:#b3b3b3;}.cls-4{fill:#ff4555;}.cls-5{fill:#dce1cb;}.cls-6{fill:#999;}.cls-7{fill:#fff;}.cls-8{fill:#f2f2f2;}.cls-9{fill:#60c1d2;}.cls-10{fill:#0b1017;}.cls-11{fill:#201c3d;}.cls-12,.cls-13{fill:#2d2856;}.cls-13,.cls-18{opacity:0.5;}.cls-13,.cls-17,.cls-18{mix-blend-mode:multiply;}.cls-14,.cls-18{fill:#ffae80;}.cls-15{fill:#c8e6e2;}.cls-16,.cls-17{fill:#d6eeeb;}</style></defs><g class="cls-1"><g id="Layer_2" data-name="Layer 2"><g id="Layer_1-2" data-name="Layer 1"><g class="cls-1"><path class="cls-2" d="M36.16,48.93a.9.9,0,0,0-.92-.09L21.06,57.08a.9.9,0,0,1,.92.09l13.79,8,14.17-8.24Z"/><path class="cls-3" d="M24,13.17,38.18,4.93a.4.4,0,0,1,.39,0L24.39,13.21A.4.4,0,0,0,24,13.17Z"/><path class="cls-4" d="M24.39,13.21,38.57,5a1.16,1.16,0,0,1,.37.39A66.62,66.62,0,0,1,43.13,14c.81,2,1.53,4,2.18,6.1a104.45,104.45,0,0,1,2.75,10.66q.63,3,1.08,5.92c.56,3.49,1,6.81,1.23,9.83.19,2,.32,3.94.42,5.66.2,3.4.27,6.14.3,7.92L36.91,68.36c0-1.78-.1-4.52-.3-7.92-.1-1.72-.23-3.63-.42-5.66-.28-3-.67-6.34-1.23-9.83q-.45-2.89-1.08-5.92a104.45,104.45,0,0,0-2.75-10.66c-.64-2.05-1.37-4.09-2.18-6.1a66.62,66.62,0,0,0-4.19-8.67A1.16,1.16,0,0,0,24.39,13.21Z"/><path class="cls-5" d="M24.39,13.21a1.16,1.16,0,0,1,.37.39A66.62,66.62,0,0,1,29,22.27c.81,2,1.54,4.05,2.18,6.1A104.45,104.45,0,0,1,33.88,39q.63,3,1.08,5.92c.56,3.49.95,6.81,1.23,9.83.19,2,.32,3.94.42,5.66.2,3.4.27,6.14.3,7.92L20.68,59V57.91c0-.82.58-1.15,1.3-.74l13.79,8c-.06-1.79-.14-3.54-.25-5.23-.12-2-.26-3.84-.43-5.67-.32-3.44-.73-6.66-1.21-9.68-.32-2.06-.69-4-1.08-5.92a105.37,105.37,0,0,0-2.67-10.36q-1.06-3.32-2.19-6.1a67.31,67.31,0,0,0-3-6.5c-.32-.6-.63-1.14-.91-1.63a1.11,1.11,0,0,1-.16-.52C23.85,13.15,24.11,13.05,24.39,13.21Z"/></g><polygon class="cls-5" points="30.97 21.08 41.6 14.9 42.99 15.03 32.36 21.21 30.97 21.08"/><path class="cls-2" d="M32.36,21.21l1.81,6.07-1-.1c-.65-2.06-1.37-4.1-2.18-6.1Z"/><polygon class="cls-6" points="35.77 37.16 46.41 30.98 47.74 31.48 37.1 37.66 35.77 37.16"/><polygon class="cls-5" points="35.77 37.16 46.41 30.98 47.74 31.48 37.1 37.66 35.77 37.16"/><path class="cls-2" d="M37.1,37.65l.82,5.82-1.07-.39c-.3-1.93-.66-3.91-1.08-5.92Z"/><polygon class="cls-6" points="38.21 53.59 48.84 47.41 50.08 48.03 39.44 54.21 38.21 53.59"/><polygon class="cls-5" points="38.21 53.59 48.84 47.41 50.08 48.03 39.44 54.21 38.21 53.59"/><path class="cls-2" d="M39.44,54.21l.3,5.6-1.11-.56c-.1-1.72-.24-3.63-.42-5.66Z"/><polygon class="cls-7" points="39.33 9.42 38.64 9.35 31.55 13.47 35.12 25.47 35.82 25.54 42.91 21.42 39.33 9.42"/><polygon class="cls-8" points="32.24 13.54 39.33 9.42 42.91 21.42 35.82 25.54 32.24 13.54"/><polygon class="cls-7" points="45.43 25.42 44.7 25.15 37.61 29.27 39.25 40.91 39.97 41.18 47.06 37.06 45.43 25.42"/><polygon class="cls-8" points="38.34 29.54 45.43 25.42 47.06 37.06 39.97 41.18 38.34 29.54"/><polygon class="cls-7" points="48.34 43.05 47.46 42.61 40.37 46.73 40.95 57.78 41.84 58.22 48.93 54.1 48.34 43.05"/><polygon class="cls-8" points="41.25 47.17 48.34 43.05 48.93 54.1 41.84 58.22 41.25 47.17"/><polygon class="cls-9" points="39.44 54.21 50.08 48.03 50.37 53.63 39.74 59.81 39.44 54.21"/><polygon class="cls-9" points="37.1 37.66 47.74 31.48 48.55 37.29 37.92 43.47 37.1 37.66"/><polygon class="cls-9" points="32.36 21.21 42.99 15.03 44.8 21.1 34.17 27.28 32.36 21.21"/><path class="cls-10" d="M12.44,67.67a10.69,10.69,0,0,0-.17,2.78c.17.84,2.39,1.38,2.39,1.38s3.1,2.92,5.74,2.72c1.55-.12,2.08-.53,2.32-1a1.45,1.45,0,0,0-.29-1.46c-.31-.43-3.53-1.8-4.33-3.08-.4-.63-1.05-2-1.05-2l-.27-2.45-4.28-.18.22,2.9Z"/><path class="cls-11" d="M8.68,37,11.4,50.63A41.37,41.37,0,0,0,12,67.69c.83,2.25,3.82,1.62,5.68,0a108.16,108.16,0,0,1-.54-15l.54-3.57s.44-1.83.42-8.75c0-3.55-2-11.29-2-11.29Z"/><path class="cls-10" d="M3,72.45a8.25,8.25,0,0,0-.36,3.17,3.36,3.36,0,0,0,1.79,1.77,5.57,5.57,0,0,0,4.9,3.26c3.4.08,3.37-1.3,3.35-1.29a2,2,0,0,0-.77-1.43,45.12,45.12,0,0,1-3.44-3,7.26,7.26,0,0,1-.81-1.5L7.54,71H3Z"/><path class="cls-12" d="M11,39.9c0,6.92.25,11-1.57,14.53a39.74,39.74,0,0,1-.9,4.66C8,60.93,8,69,8.26,73.75a3.33,3.33,0,0,1-4.65.81,3.08,3.08,0,0,1-1.22-1.7c-1.2-7.49-2-13.41.94-18.93-1-4.83-.84-9.59-.54-14.85a15,15,0,0,1,1-7.89,14.46,14.46,0,0,1,.8-1.57l12.31,2.92C15.61,37,13.39,39.36,11,39.9Z"/><path class="cls-13" d="M5.34,54.4C1.56,58.27,2.65,65.8,3.61,74.55a3,3,0,0,1-1.22-1.69c-1.2-7.49-2-13.41.94-18.93-1-4.83-.84-9.59-.54-14.85a15,15,0,0,1,1-7.89L8.05,36C3.8,38.67,3,47.94,5.34,54.4Z"/><path class="cls-14" d="M19.79,31.68c-.35.8-.69,1.58-1,2.33a12.52,12.52,0,0,1-1.35,3.14c-.18.73.18.76.88.37l1.44-2.13A3.6,3.6,0,0,1,20.67,37l-.39,3.27c.1.63.36.57.67.21l.58-3,.06,3.18c.22.27.41.18.56-.25l.19-.92c.16.33.32.27.48-.07,0,0,.12-3.83.12-3.89s-1.25-4.48-1.25-4.48l-.48-.94-1.91.53Z"/><path class="cls-15" d="M13.6,13.31c.68,2.58.5,5.73,1.39,9.46,1.21,3.74,1.78,5.71,3.49,10,.27.41,3.56-.27,3.46-.71-1.78-8.18-.73-5.5-1.87-9-.51-2.71-.55-6.17-.87-9.46-.19-2.17-1-3.34-2.14-3.83C14.52,8.87,12.17,10.89,13.6,13.31Z"/><path class="cls-16" d="M17.09,27.5c0,.07,0,.14,0,.21-.06.77-.15,1.58-.23,2.43,0,.33-.07.65-.11,1,.34,1.72-2.21,3.15-5,4-2.58.79-5.37,1.1-6.41.73a5.31,5.31,0,0,1-3-3l-.5-9,0-.76L.86,16a18.62,18.62,0,0,1,4.85-4.24c3.4-2.26,6.49-3.22,10.63-2C17.67,14.19,17.93,18.49,17.09,27.5Z"/><path class="cls-15" d="M11.46,14.53,13,15.6s1.14-4.08.06-5.14S11.46,14.53,11.46,14.53Z"/><path class="cls-14" d="M6.66,11.25l1.93-4,5,2.48-.69,3.12C11.89,16.47,6.05,14.33,6.66,11.25Z"/><path class="cls-4" d="M12.27,16.69v-1.6l-.81-.56-.45,1L11.46,17a90.74,90.74,0,0,1,.36,11l1.32,1.27.92-2.08A75.32,75.32,0,0,0,12.27,16.69Z"/><path class="cls-15" d="M7.14,10.28l-1,1.24s1.67,4.72,4.67,4.72c.4-.93.66-1.71.66-1.71C9.28,14.2,7.14,11.92,7.14,10.28Z"/><path class="cls-17" d="M17.07,27.71c-.06.77-.15,1.58-.23,2.43,0,.33-.07.65-.11,1,.34,1.72-2.21,3.15-5,4-2.58.79-5.37,1.1-6.41.73a5.31,5.31,0,0,1-3-3l-.5-9L6.6,20.28c.78,3.34.52,3.78,1.28,6.28,1.29.76,7.05-.44,9.21.94C17.05,27.54,17.05,27.6,17.07,27.71Z"/><path class="cls-18" d="M14.47,11.31c.44,2.13.72,5.18-.6,5.31-.86,0-2.46-1.51-3.22-4.11a10.38,10.38,0,0,1-.47-3.61Z"/><path class="cls-14" d="M10,9.38l1.26,1.81a1.73,1.73,0,0,0,1.15.89,7,7,0,0,0,2.81,0,1.2,1.2,0,0,0,.91-.75A20.69,20.69,0,0,0,16.42,9a1.19,1.19,0,0,0,.46-.42.54.54,0,0,0-.06-.6c-.16-.16-.92-1.56-.92-1.56l.32-1.48c-.11-2.33-1.5-4-4.72-4.7C8.78-.25,7,1.05,6.42,3.93,6,7.57,7.1,9,10,9.38Z"/><path class="cls-10" d="M7.24,8.85a1.94,1.94,0,0,0,1.29.5A.59.59,0,0,0,9.08,9l.49-1.37,1.23-.07a.39.39,0,0,0,.37-.41l0-.53a.8.8,0,0,1,.62-.8c2-.43,3.85-.9,4.38-1.69a.41.41,0,0,0,.08-.32c-.6-3.77-8.42-6-9.91-.38A6.07,6.07,0,0,0,7.24,8.85Z"/><path class="cls-14" d="M9.27,6.84a.91.91,0,0,0-.54.89,2.7,2.7,0,0,0,.34,1,2,2,0,0,0,.36.54.62.62,0,0,0,.6.17.64.64,0,0,0,.35-.4,1.72,1.72,0,0,0,.06-.55,2.62,2.62,0,0,0-.18-1.18A.9.9,0,0,0,9.27,6.84Z"/><path class="cls-14" d="M21.14,23.5a3.37,3.37,0,0,0,2.39-.09l1.2-.63c.35.22.84-.1,1.35-.44.29-.33.31-.62.06-.86.11-.41.09-.75-.24-.92a.68.68,0,0,0-.36-.89.8.8,0,0,0-.5-.89L27.77,17c.58-.38.35-1-.51-.61l-5.32,3a5.38,5.38,0,0,0-2,1.65l-1.25,1.72,1.69,1.84Z"/><path class="cls-16" d="M21.58,24.1c-1.45,2-9.22,6.49-12,6.45-3.49-2.68-4.26-3-8-7.13C-2.2,17.77,1.4,12.23,5.7,17.24a46.51,46.51,0,0,1,5.38,7.13c3.84-1.49,8.64-3,8.67-3C19.44,22.05,20.83,24,21.58,24.1Z"/></g></g></g></svg>