<svg xmlns="http://www.w3.org/2000/svg" viewBox="0 0 72.23 145.78"><defs><style>.cls-1{isolation:isolate;}.cls-2{fill:#ff4555;}.cls-3{fill:#fc9f6a;}.cls-4,.cls-8{fill:#ffae80;}.cls-5,.cls-6{fill:#60c1d2;}.cls-14,.cls-6,.cls-7,.cls-8{mix-blend-mode:multiply;}.cls-7{fill:#c1272d;}.cls-14,.cls-8{opacity:0.5;}.cls-9{fill:#9e2e3b;}.cls-10{fill:#585858;}.cls-11{fill:#dce1cb;}.cls-12{fill:#373737;}.cls-13{fill:#fff;}.cls-14{fill:#991f24;}.cls-15{fill:#333332;}.cls-16{fill:#48408a;}.cls-17{fill:#2d2856;}</style></defs><g class="cls-1"><g id="Layer_2" data-name="Layer 2"><g id="Layer_1-2" data-name="Layer 1"><path d="M30.9,45.76c2.85.4,3.41,3.85,4.47,5.87C39.56,48.47,36.59,42.16,30.9,45.76Z"/><path class="cls-2" d="M27.41,111.54A9.21,9.21,0,0,0,30,115c1.4,1.13,2.69,1.81,3.79,1.67,1.07-.41,1-1.3.6-2.53a10,10,0,0,0-3.45-3.45s-1.65-1.42-1.65-1.48S27.41,111.54,27.41,111.54Z"/><path class="cls-3" d="M35.16,97.12a105.44,105.44,0,0,1-5.63,12.39s2.92,2.54,1.72,3.46c-1.78,1.37-4.06-2.93-4.06-2.93l3.38-11.82Z"/><path class="cls-2" d="M25.15,113.75l-.06.17c-.52,0-1.17,1.72-.94,3,.74,2,0,3.48.27,5.67a3.84,3.84,0,0,0,1.72,3c1.79,1.07,3.11,1.26,3.32-.25a7.36,7.36,0,0,0-.47-3.62l-.86-4.21Z"/><path class="cls-4" d="M27.69,122.1c-2.44.3-2.84-2.69-2.86-5.35,0-.79,0-1.56,0-2.2,2.17-5.43-1.66-10.32,1-15l-.34-1.94-.89-5.18,6.27-.75L32,97.38l.39,3.41c-.69,4.57-3.75,9.7-4.38,14.58C27.87,117.62,29.14,121.92,27.69,122.1Z"/><path class="cls-4" d="M28.36,100.34c-2.9,2.31-.33,12-3.53,16.41,0-.79,0-1.56,0-2.2,2.17-5.43-1.66-10.32,1-15l-.34-1.94C26.76,98.77,28.36,100.34,28.36,100.34Z"/><path class="cls-5" d="M37.06,82.91c.2,6.7-1.74,7.62-1.57,12.3a4.69,4.69,0,0,1-.12,1.15,5.87,5.87,0,0,1-2.86,3.9,2.86,2.86,0,0,1-.41.15,11.64,11.64,0,0,1-3.88,0,3.84,3.84,0,0,1-2.89-2.32c0-5-3.72-8.47-4.13-15a9.78,9.78,0,0,1,2.28-7.41l2.19,0,10.92-.18Z"/><path class="cls-6" d="M28.36,100.34l-.14,0a3.84,3.84,0,0,1-2.89-2.32c0-5-3.72-8.47-4.13-15a9.78,9.78,0,0,1,2.28-7.41l2.19,0,6.07,3.27C20.29,80,26.9,98,28.36,100.34Z"/><path d="M29.59,48.31c-4-.32-5.66,2.44-6,4.95A7.93,7.93,0,0,0,25,59.74,23.26,23.26,0,0,0,28.19,63c1.39-6.51-1.8-10.36-.61-12.29a4.47,4.47,0,0,1,2-1.51Z"/><path class="cls-2" d="M23.54,69.33c1.07,2.42,1.1,5-.57,6.76,1.85,2.42,5.71,3.39,10.32,2.52a3.65,3.65,0,0,0,3.3-3.23A14.69,14.69,0,0,1,35.88,68c2.09-.16,3.28-1.33,3.26-3.12s-1.35-3.3-1.87-5.91a9.56,9.56,0,0,1-.16-1.16c0-.08,0-.17,0-.26.46-2.32-.92-5.43-2.65-5.68l-5.78,2.2c-2.61.57-4.9,2.44-7.12,4.68A22.45,22.45,0,0,0,21.86,65,14.41,14.41,0,0,0,23.54,69.33Z"/><path class="cls-7" d="M36.59,75.39a3.63,3.63,0,0,1-3.3,3.22c-4.61.86-8.48-.1-10.32-2.52,1.67-1.72,1.65-4.34.58-6.76A13.67,13.67,0,0,1,21.87,65l2.68-.08c1.65,3.54,2.36,7,5.84,6.39,2.41-.45,3.17-2.46,2.6-4.9A4.39,4.39,0,0,0,35.88,68,14.75,14.75,0,0,0,36.59,75.39Z"/><path class="cls-4" d="M26,55.13A9.05,9.05,0,0,0,27.22,51l4.6.37-.05,3.28C33.48,59.43,26.5,58.18,26,55.13Z"/><path class="cls-8" d="M28.94,52.07c.33,2.71,1.29,6.77,3.73,5.49,1.42-.74.91-3,.61-5Z"/><path class="cls-4" d="M27.13,51.88c-2.57-4.33-1.25-8.09,2.26-8.91,3.84-.89,6.42,1.88,6.42,5.25.11,3.55-.79,6.07-2.13,6.28a3.91,3.91,0,0,1-4.48-2.11Z"/><path d="M26.55,52.46l-.11,1.89c.72-2,1.77-2.11,1.86-2.7l.17-1.12,1,.44c2.08.1,2.44-3.53,6.32-3.06.34-3.46-2.24-5.38-5.42-5.34-3.84.32-5.07,2.56-4.93,5.31A9.66,9.66,0,0,0,26.55,52.46Z"/><path class="cls-4" d="M29.52,52.14c.19-.54.24-.48.16-.72-.24-.69-.66-1.22-1.08-1.11s-.59.14-.72.4a1.24,1.24,0,0,0,.12,1,2.19,2.19,0,0,0,.36.63.72.72,0,0,0,.64.25A.7.7,0,0,0,29.52,52.14Z"/><path class="cls-6" d="M35.37,96.36a5.87,5.87,0,0,1-2.86,3.9,5.82,5.82,0,0,0,.32-1.34c.43-3.28-.93-6.19-.35-8.08a11,11,0,0,0,1,3.32A6.87,6.87,0,0,0,35.37,96.36Z"/><g class="cls-1"><polygon class="cls-9" points="3.62 101.08 3.71 136.23 20.09 145.78 19.98 110.63 3.62 101.08"/><polygon class="cls-2" points="19.98 110.63 20.09 145.78 68.61 117.76 68.52 82.61 19.98 110.63"/><polygon class="cls-10" points="3.62 101.08 19.98 110.63 68.52 82.61 52.15 73.06 3.62 101.08"/></g><g class="cls-1"><polygon class="cls-9" points="0 100.3 0.01 103.81 20.02 115.48 20.01 111.97 0 100.3"/><polygon class="cls-9" points="20.01 111.97 20.02 115.48 72.23 85.34 72.22 81.82 20.01 111.97"/><polygon class="cls-11" points="0 100.3 20.01 111.97 72.22 81.82 52.21 70.16 0 100.3"/></g><path class="cls-9" d="M6.46,31V99.76a.6.6,0,0,1-.3.37,1.59,1.59,0,0,1-1.44,0,.55.55,0,0,1-.29-.37S4.42,31,4.42,31Z"/><path class="cls-9" d="M51.31,5.1V73.88a.63.63,0,0,1-.3.38,1.61,1.61,0,0,1-1.45,0,.54.54,0,0,1-.29-.38s0-68.78,0-68.78Z"/><polygon class="cls-9" points="53.47 0 55.3 1.06 55.36 22.45 3.15 52.59 1.32 51.53 1.26 30.14 53.47 0"/><polygon class="cls-12" points="3.09 31.2 3.15 52.59 55.36 22.45 55.3 1.06 3.09 31.2"/><polygon class="cls-2" points="3.09 31.2 3.15 52.59 55.36 22.45 55.3 1.06 3.09 31.2"/><polygon class="cls-13" points="7.41 33.69 7.44 38.01 38.05 20.33 38.01 16.02 7.41 33.69"/><polygon class="cls-9" points="7.41 40.49 7.44 42.65 38.05 24.98 38.01 22.82 7.41 40.49"/><polygon class="cls-9" points="11.15 42.02 38.01 26.51 38.05 28.66 11.15 44.19 11.15 42.02"/><path class="cls-13" d="M39.8,21c0,3.43,2.79,4.61,6.23,2.63s6.22-6.38,6.22-9.81S49.46,9.15,46,11.14,39.8,17.51,39.8,21Z"/><path class="cls-4" d="M52.57,43.62l1.3-1.87a8.5,8.5,0,0,1-.47-2.84,5.91,5.91,0,0,0-.22-1.84c-.16-.77.38-1.12.71-.37s.33,1.15.5,1.71a.88.88,0,0,0,.61.4,2.6,2.6,0,0,0,.89-1l.51-1.57.31-1.23c.13-.52.69-.49.68.17l-.16,1.34-.51,1.56.71-.75.64-1.45c.19-.51.7-.42.59.24l-.61,1.7L57.3,39l.87-.89.61-.81c.41-.49.73-.08.4.47L58.47,39c.36-.43.64.06.18.71L57.54,41.3l-.76,1-1.06.81-2.27,3.28Z"/><path class="cls-2" d="M37.58,52.07l7.78-3,8.49-7.34a2.83,2.83,0,0,0,1.88,1.51q-1.11,1.69-2.43,3.33a39.63,39.63,0,0,1-7.11,7,85.34,85.34,0,0,1-10,5.48l-.76-6.66A13.94,13.94,0,0,0,37.58,52.07Z"/><path class="cls-14" d="M36.73,57.53c0,.41.1.79.17,1.15,2.55-1.13,6-3.21,9.29-5.17a39.3,39.3,0,0,0,7.11-7l-7.65,5.89C44.24,53.89,40.54,55.82,36.73,57.53Z"/><path class="cls-4" d="M36.3,80.12a.59.59,0,0,1-.66.17c-.71-.31-1.4-.51-2,0a1.29,1.29,0,0,0,.3.87l0,.07a14,14,0,0,0,2.27,2.14.31.31,0,0,1,.07.38.43.43,0,0,1-.45.2c.14.26-.17.5-.5.35l-.5-.23c.09.32-.31.38-.51.21l-1-.54a6.5,6.5,0,0,1-1.75-1.06l-.23-.2a9.77,9.77,0,0,1-1.64-2.69c-.1-.89.56-1.3,1.66-1.25l1.33.12a16.43,16.43,0,0,1,3.52,1C36.42,79.77,36.41,80,36.3,80.12Z"/><path class="cls-4" d="M36.34,83.75a.43.43,0,0,1-.45.2c.14.26-.17.5-.5.35l-.5-.23c.09.32-.31.38-.51.21l-1-.54a6.5,6.5,0,0,1-1.75-1.06,2.06,2.06,0,0,0,1.55-.91C34.12,82.68,35.59,83.82,36.34,83.75Z"/><path class="cls-4" d="M36.3,80.12a.59.59,0,0,1-.66.17c-.71-.31-1.4-.51-2,0a1.29,1.29,0,0,0,.3.87L33.2,80.1C34.3,79.32,35.62,80.12,36.3,80.12Z"/><path class="cls-4" d="M36.3,80.12a.59.59,0,0,1-.66.17c-.71-.31-1.4-.51-2,0a1.29,1.29,0,0,0,.3.87l0,.07a14,14,0,0,0,2.27,2.14.31.31,0,0,1,.07.38.43.43,0,0,1-.45.2c.14.26-.17.5-.5.35l-.5-.23c.09.32-.31.38-.51.21l-1-.54a6.5,6.5,0,0,1-1.75-1.06l-.23-.2a9.77,9.77,0,0,1-1.64-2.69c-.1-.89.56-1.3,1.66-1.25l1.33.12a16.43,16.43,0,0,1,3.52,1C36.42,79.77,36.41,80,36.3,80.12Z"/><path class="cls-4" d="M36.34,83.75a.43.43,0,0,1-.45.2c.14.26-.17.5-.5.35l-.5-.23c.09.32-.31.38-.51.21l-1-.54a6.5,6.5,0,0,1-1.75-1.06,2.06,2.06,0,0,0,1.55-.91C34.12,82.68,35.59,83.82,36.34,83.75Z"/><path class="cls-4" d="M36.3,80.12a.59.59,0,0,1-.66.17c-.71-.31-1.4-.51-2,0a1.29,1.29,0,0,0,.3.87L33.2,80.1C34.3,79.32,35.62,80.12,36.3,80.12Z"/><path class="cls-2" d="M21.54,58.79c-1.86,2.65-1.26,12-.64,14.26a31.29,31.29,0,0,0,9.17,7.41c-.16-1-.49-1.71,1.13-1.92l-6.6-7.88c.7-2.13.63-4.46.84-7.63C25,56.7,21.85,58.26,21.54,58.79Z"/><path class="cls-12" d="M65,80.19,61.42,65.83a1.15,1.15,0,0,0-.48-.68.52.52,0,0,0-.16-.06.32.32,0,0,0-.2,0L52.19,70c-.13.06-.19.26-.13.52l1.87,7.55L49.41,80.7a.34.34,0,0,0-.15.32,1.16,1.16,0,0,0,.5.88l6.34,3.65a.31.31,0,0,0,.41,0l0,0,8.39-4.88a.1.1,0,0,0,.05,0A.48.48,0,0,0,65,80.19Z"/><g class="cls-1"><path class="cls-9" d="M58.16,75.85a.37.37,0,0,0-.36,0L49.41,80.7a.34.34,0,0,1,.36,0L55.4,84l8.39-4.87Z"/><path class="cls-2" d="M65,80.19,61.42,65.83a1.15,1.15,0,0,0-.48-.68.52.52,0,0,0-.16-.06.32.32,0,0,0-.2,0L52.19,70a.22.22,0,0,1,.2,0l.16.06a1.12,1.12,0,0,1,.48.68l3.55,14.35a.52.52,0,0,1-.07.49l0,0,8.39-4.88a.1.1,0,0,0,.05,0A.48.48,0,0,0,65,80.19Z"/><path class="cls-13" d="M54.18,70.42a1.21,1.21,0,0,0,0-.18l6.26-3.63L63.7,80l-6.25,3.63Z"/><path class="cls-13" d="M52.55,70a1.12,1.12,0,0,1,.48.68l3.55,14.35a.52.52,0,0,1-.07.49.31.31,0,0,1-.41,0L49.76,81.9a1.16,1.16,0,0,1-.5-.88c0-.32.23-.45.51-.29L55.4,84,52.06,70.52c-.08-.35.06-.6.33-.55Z"/></g><rect class="cls-15" x="20.42" y="102.2" width="3.39" height="1.1" transform="translate(-48.41 24.82) rotate(-30)"/><path class="cls-16" d="M9.82,97l11.34,6.52c0,.51-.36.71-.79.46L10.6,98.41a1.74,1.74,0,0,1-.78-1.36Z"/><polygon class="cls-17" points="35.64 95.13 24.33 88.66 9.81 97.04 21.16 103.56 35.64 95.13"/><polygon class="cls-13" points="19.73 100.9 20.37 101.27 19.57 101.73 18.93 101.36 19.73 100.9"/><polygon class="cls-13" points="22.28 100.17 21.48 100.63 20.84 100.26 21.64 99.8 22.28 100.17"/><polygon class="cls-13" points="22.59 99.25 23.23 99.62 22.44 100.08 21.79 99.71 22.59 99.25"/><polygon class="cls-13" points="23.55 98.7 24.19 99.07 23.39 99.53 22.75 99.16 23.55 98.7"/><polygon class="cls-13" points="24.5 98.14 25.14 98.52 24.35 98.98 23.7 98.61 24.5 98.14"/><polygon class="cls-13" points="27.05 97.42 26.26 97.88 25.61 97.5 26.41 97.04 27.05 97.42"/><polygon class="cls-13" points="27.36 96.49 28.01 96.86 27.21 97.32 26.57 96.95 27.36 96.49"/><polygon class="cls-13" points="28.32 95.94 28.96 96.31 28.17 96.77 27.52 96.4 28.32 95.94"/><polygon class="cls-13" points="25.7 93.14 25.05 92.77 25.85 92.31 26.5 92.68 25.7 93.14"/><polygon class="cls-13" points="26.65 92.59 26.01 92.22 26.81 91.76 27.45 92.13 26.65 92.59"/><polygon class="cls-13" points="26.96 91.67 27.76 91.21 28.41 91.58 27.61 92.04 26.96 91.67"/><polygon class="cls-13" points="15.54 99.25 14.89 98.88 15.69 98.42 16.33 98.79 15.54 99.25"/><polygon class="cls-13" points="16.49 98.7 15.85 98.33 16.64 97.87 17.29 98.24 16.49 98.7"/><polygon class="cls-13" points="22.06 95.48 20.61 96.32 20.31 96.49 20.15 96.58 19.75 96.81 19.2 97.14 18.4 97.6 17.45 98.15 16.8 97.78 19.41 96.27 19.51 96.21 21.42 95.11 22.06 95.48"/><polygon class="cls-13" points="22.22 95.39 21.57 95.02 22.37 94.56 23.02 94.93 22.22 95.39"/><polygon class="cls-13" points="23.17 94.84 22.53 94.47 23.33 94.01 23.97 94.38 23.17 94.84"/><polygon class="cls-13" points="23.48 93.92 24.28 93.46 24.93 93.83 24.13 94.29 23.48 93.92"/><polygon class="cls-13" points="25.86 93.23 26.65 92.77 27.3 93.14 26.5 93.61 25.86 93.23"/><polygon class="cls-13" points="26.81 92.68 27.61 92.22 28.25 92.59 27.46 93.05 26.81 92.68"/><polygon class="cls-13" points="27.77 92.13 28.56 91.67 29.21 92.04 28.41 92.5 27.77 92.13"/><polygon class="cls-13" points="15.69 99.34 16.49 98.88 17.14 99.25 16.34 99.71 15.69 99.34"/><polygon class="cls-13" points="18.09 98.7 17.29 99.16 16.65 98.79 17.45 98.33 18.09 98.7"/><polygon class="cls-13" points="19.04 98.15 18.25 98.61 17.6 98.24 18.4 97.78 19.04 98.15"/><polygon class="cls-13" points="20 97.6 19.2 98.06 18.56 97.69 19.35 97.23 20 97.6"/><polygon class="cls-13" points="20.95 97.05 20.16 97.51 19.51 97.14 20.31 96.68 20.95 97.05"/><polygon class="cls-13" points="21.91 96.5 21.11 96.96 20.47 96.58 21.26 96.13 21.91 96.5"/><polygon class="cls-13" points="22.86 95.95 22.07 96.41 21.42 96.03 22.22 95.57 22.86 95.95"/><polygon class="cls-13" points="23.82 95.39 23.02 95.86 22.38 95.48 23.17 95.02 23.82 95.39"/><polygon class="cls-13" points="24.77 94.84 23.98 95.3 23.33 94.93 24.13 94.47 24.77 94.84"/><polygon class="cls-13" points="26.66 93.7 27.46 93.24 28.1 93.61 27.3 94.07 26.66 93.7"/><polygon class="cls-13" points="29.06 93.06 28.26 93.52 27.61 93.14 28.41 92.68 29.06 93.06"/><polygon class="cls-13" points="28.57 92.59 29.37 92.13 30.01 92.5 29.21 92.97 28.57 92.59"/><polygon class="cls-13" points="16.49 99.81 17.29 99.34 17.94 99.72 17.14 100.18 16.49 99.81"/><polygon class="cls-13" points="18.89 99.17 18.09 99.63 17.45 99.25 18.25 98.79 18.89 99.17"/><polygon class="cls-13" points="18.4 98.7 19.2 98.24 19.85 98.61 19.05 99.08 18.4 98.7"/><polygon class="cls-13" points="19.36 98.15 20.16 97.69 20.8 98.06 20 98.52 19.36 98.15"/><polygon class="cls-13" points="20.31 97.6 21.11 97.14 21.76 97.51 20.96 97.97 20.31 97.6"/><polygon class="cls-13" points="21.27 97.05 22.07 96.59 22.71 96.96 21.91 97.42 21.27 97.05"/><polygon class="cls-13" points="23.67 96.41 22.87 96.87 22.22 96.5 23.02 96.04 23.67 96.41"/><polygon class="cls-13" points="23.18 95.95 23.98 95.48 24.62 95.86 23.82 96.32 23.18 95.95"/><polygon class="cls-13" points="25.73 95.22 24.78 95.77 24.13 95.39 25.09 94.84 24.29 94.38 25.08 93.92 25.89 94.38 26.15 94.53 26.53 94.75 26 95.06 25.73 95.22"/><polygon class="cls-13" points="28.11 94.53 27.46 94.16 28.26 93.7 28.9 94.07 28.11 94.53"/><polygon class="cls-13" points="29.21 93.15 29.86 93.52 29.06 93.98 28.41 93.61 29.21 93.15"/><polygon class="cls-13" points="29.37 93.06 30.17 92.6 30.81 92.97 30.02 93.43 29.37 93.06"/><polygon class="cls-13" points="17.3 100.27 18.09 99.81 18.74 100.18 17.94 100.64 17.3 100.27"/><polygon class="cls-13" points="18.9 100.09 18.25 99.72 19.05 99.26 19.69 99.63 18.9 100.09"/><polygon class="cls-13" points="19.21 99.17 20 98.7 20.65 99.08 19.85 99.54 19.21 99.17"/><polygon class="cls-13" points="20.96 98.15 21.6 98.53 20.81 98.99 20.16 98.61 20.96 98.15"/><polygon class="cls-13" points="21.12 98.06 21.91 97.6 22.56 97.97 21.76 98.44 21.12 98.06"/><polygon class="cls-13" points="22.07 97.51 22.87 97.05 23.51 97.42 22.71 97.88 22.07 97.51"/><polygon class="cls-13" points="23.67 97.33 23.02 96.96 23.82 96.5 24.47 96.87 23.67 97.33"/><polygon class="cls-13" points="23.98 96.41 24.78 95.95 25.42 96.32 24.63 96.78 23.98 96.41"/><polygon class="cls-13" points="25.89 95.31 26.18 95.14 26.69 94.85 27.33 95.22 26.83 95.51 26.54 95.68 25.58 96.23 24.93 95.86 25.89 95.31"/><polygon class="cls-13" points="30.51 95 29.71 95.46 29.06 95.09 29.86 94.63 30.51 95"/><polygon class="cls-13" points="30.82 94.07 31.46 94.45 30.66 94.91 30.02 94.53 30.82 94.07"/><polygon class="cls-13" points="31.77 93.52 32.42 93.89 31.62 94.36 30.97 93.98 31.77 93.52"/><path class="cls-13" d="M16.72,94l1.91,1.1a.36.36,0,0,0,.32,0l2.89-1.66a.1.1,0,0,0,0-.18l-1.92-1.11a.34.34,0,0,0-.31,0l-2.89,1.67C16.63,93.91,16.63,94,16.72,94Z"/><path class="cls-17" d="M35.68,95.31,38.8,83.9a1.61,1.61,0,0,1,.56,1.44l-2.7,9.9c-.12.42-.55.46-1,.08Z"/><polygon class="cls-17" points="24.3 92.28 21.93 103.92 36.43 95.54 38.8 83.9 24.3 92.28"/><path class="cls-16" d="M21.17,103.69l3.12-11.41a1.64,1.64,0,0,1,.56,1.44l-2.71,9.9c-.11.42-.55.46-1,.08Z"/><path class="cls-13" d="M30.41,94.39c-.08.49.23.69.69.44a2.13,2.13,0,0,0,1-1.34c.08-.49-.22-.69-.68-.44A2.08,2.08,0,0,0,30.41,94.39Z"/></g></g></g></svg>