<svg xmlns="http://www.w3.org/2000/svg" viewBox="0 0 144.24 161.31"><defs><style>.cls-1{isolation:isolate;}.cls-2,.cls-5{fill:#924fc2;}.cls-13,.cls-3{fill:#ffae80;}.cls-4{fill:#ffbb7d;}.cls-13,.cls-27,.cls-5{opacity:0.5;}.cls-13,.cls-22,.cls-23,.cls-27,.cls-5,.cls-8{mix-blend-mode:multiply;}.cls-6{fill:#0b1017;}.cls-7,.cls-8{fill:#60c1d2;}.cls-12,.cls-26,.cls-9{fill:#1d1d1b;}.cls-11,.cls-9{opacity:0.15;}.cls-10{fill:#ededed;}.cls-12{opacity:0.1;}.cls-14{fill:#dce1cb;}.cls-15{fill:#373737;}.cls-16{fill:#ff4555;}.cls-17,.cls-27{fill:#9e2e3b;}.cls-18{fill:#fff;}.cls-19{fill:#ccc;}.cls-20{fill:#201c3d;}.cls-21{fill:#2d2856;}.cls-22{fill:#a263c7;}.cls-23,.cls-28{fill:#d6eeeb;}.cls-24{fill:#c8e6e2;}.cls-25{fill:#3f76ab;}</style></defs><g class="cls-1"><g id="Layer_2" data-name="Layer 2"><g id="Layer_1-2" data-name="Layer 1"><path class="cls-2" d="M137.23,99c-2.47-.16-1.92-4.35-1.25-6.64a1.61,1.61,0,0,1,2.05-1c.81.26,1.32,1.82,1.29,2.67S140.16,99.22,137.23,99Z"/><path class="cls-3" d="M135.88,94.67c-.41-3.54,3.45-3.83,2.93,0-.14,1-.78,1.78-1.43,1.81C136.37,96.54,136,95.41,135.88,94.67Z"/><path class="cls-3" d="M124.4,93.28a5.82,5.82,0,0,1-3.79,1.28.66.66,0,0,1-.51-.17c-.18-.23,0-.57.1-.82,1.24-2,3.59-3.76,4.61-5.93a1.78,1.78,0,0,1,.44-.68c.32-.26.77-.2,1.17-.31s.75-.32,1.08-.14.36.57.45.92.27,1.28.39,1.64a1.87,1.87,0,0,1,.08,1.12,1.79,1.79,0,0,1-.91,1c-.41.22-.85.35-1.25.57A15.64,15.64,0,0,0,124.4,93.28Z"/><path class="cls-2" d="M120.1,94.39a.7.7,0,0,0,.51.17,5.84,5.84,0,0,0,3.79-1.28,14.72,14.72,0,0,1,1.86-1.52c.4-.22.85-.36,1.25-.57a1.79,1.79,0,0,0,.91-1,2,2,0,0,0-.08-1.12c-.1-.31-.24-1.19-.34-1.5a.74.74,0,0,1,0-.14c-.1-.34-.16-.76-.46-.92s-.72,0-1.08.15-.85,0-1.17.29a1.94,1.94,0,0,0-.44.69,7.89,7.89,0,0,1-1.68,2.21,21.53,21.53,0,0,0-2.93,3.72C120.05,93.82,119.91,94.16,120.1,94.39Z"/><path class="cls-3" d="M122.4,91a.38.38,0,0,0,.14.36.56.56,0,0,0,.34,0,6,6,0,0,0,3.2-1.58,8.73,8.73,0,0,0,1.34-1.31,4.28,4.28,0,0,0,.58-1,.74.74,0,0,1,0-.14c-.1-.34-.11-1.06-.41-1.23s-.77,0-1.13.11-1-.13-1.31.13-.12.75-.24,1a9.09,9.09,0,0,1-1.74,2.42c-.21.28-.4.55-.56.81A.93.93,0,0,0,122.4,91Z"/><path class="cls-3" d="M123.53,66.51c0,.55.08,1.19.12,1.9s.09,1.38.14,2.15.08,1.25.12,1.92c.42,6.62,1,14.94,1,15l0,0c.6,1.12,2.86,1.37,3.07,0a109.41,109.41,0,0,1,1.56-11.7c.19-1.2.35-2.36.45-3.49a24.86,24.86,0,0,0,.11-2.84v-.14a15.86,15.86,0,0,0-.2-2.4c0-.24-.08-.48-.13-.71l-5.1-3.31C124.65,63,123.53,66.36,123.53,66.51Z"/><path class="cls-3" d="M129.52,59.2c.85,4.34,1.33,7.77,1.85,10.39,0,.2.08.4.11.59a22.06,22.06,0,0,0,.7,2.64c0,.17.11.34.17.49l.43,2,.18.89,3.28,15.69.11.56.11.52c0,1.23,1.89.81,2-.23a1.94,1.94,0,0,1,0-.24c0-.23,0-.46.08-.69,1-9.48.73-13.3.09-16.88-.08-.46-.16-.92-.25-1.38-.13-.67-.27-1.35-.41-2.07,0-.24.06-.47.08-.7,0-.06,0-.12,0-.18a.38.38,0,0,0,0-.1,66.43,66.43,0,0,0,.29-11.33Z"/><path class="cls-4" d="M129.52,59.2c.85,4.34,1.33,7.77,1.85,10.39,0,.2.08.4.11.59a22.06,22.06,0,0,0,.7,2.64c0,.17.11.34.17.49l.43,2,.18.89,3.28,15.69.11.56.11.52c0,1.23,1.89.81,2-.23a1.94,1.94,0,0,1,0-.24c0-.23,0-.46.08-.69,1-9.48.73-13.3.09-16.88-.08-.46-.16-.92-.25-1.38-.13-.67-.27-1.35-.41-2.07,0-.24.06-.47.08-.7,0-.06,0-.12,0-.18a.38.38,0,0,0,0-.1,66.43,66.43,0,0,0,.29-11.33Z"/><path class="cls-3" d="M131.37,69.59c0,.2.08.4.11.59a22.06,22.06,0,0,0,.7,2.64c0,.17.11.34.17.49l.43,2,.18.89a12.44,12.44,0,0,0,5.7-1.27c-.08-.46-.16-.92-.25-1.38-.13-.67-.27-1.35-.41-2.07,0-.24.06-.47.08-.7,0-.06,0-.12,0-.18Z"/><path class="cls-3" d="M123.65,68.41c0,.66.09,1.38.14,2.15s.08,1.25.12,1.92a12,12,0,0,0,5.61,3.25c.19-1.2.35-2.36.45-3.49a24.86,24.86,0,0,0,.11-2.84Z"/><path class="cls-2" d="M123.77,70.15c.77,2.1,11.24,6.33,14.56,3l1-14.48c.9-4.75.12-7.2-2.35-9.5-.3-.28-.62-.55-1-.82l-7.36-.3L125.75,48A57.84,57.84,0,0,0,123.77,70.15Z"/><path class="cls-5" d="M125.74,48c.71,1.69,1.64,3,3.5,3.46A8.71,8.71,0,0,0,137,49.22c2.47,2.3,3.25,4.75,2.35,9.5l-1,14.48a4.4,4.4,0,0,1-1.62.93c.68-5-.09-16.69-1.16-20.66-6.1.24-8.68-1.19-10.1-4.55Z"/><circle class="cls-6" cx="135.67" cy="26.85" r="3.09"/><path class="cls-7" d="M111.32,45.36l1,1.77,1.06-.32a42.19,42.19,0,0,0,9.78-4.54l5.2-6.41.92-1.13-.83-7.33c-2,.05-5,5.57-8.2,11.62Z"/><path class="cls-8" d="M113.35,46.81a42.19,42.19,0,0,0,9.78-4.54l5.2-6.41c-.27-.69-.84-2.17-.8-2,.1.42-5,7.54-5,7.94Z"/><path class="cls-3" d="M105.55,50.25c-.12.42,0,.58.56.44l.44-.19c-.08.19,0,.26.33.2H107l4.91-2.5a1.71,1.71,0,0,0,.85-1,1.94,1.94,0,0,0-.13-1.28s-1-2-3.44.11c-1.3,1.14-2.1,1.78-2.55,2.14l-.13.1c-.3.23-.41.3-.41.3-.28.37-.29.61,0,.72l-.54.42C105.33,50,105.29,50.15,105.55,50.25Z"/><path class="cls-9" d="M106.5,48.26s.38,2.44.38,2.44H107l4.91-2.5a1.71,1.71,0,0,0,.85-1c-1,.43-1.55-.25-2-.91s-3.47,1.45-4.14,1.88Z"/><polygon class="cls-10" points="109.06 39.87 111.46 53.85 104.29 58.16 101.81 43.72 109.06 39.87"/><path class="cls-3" d="M112.17,46.87a2.48,2.48,0,0,1-2.42.42l-1.53.42c-1,.25-.92-.56-.16-.77a10.86,10.86,0,0,0,2.8-1.64Z"/><path class="cls-7" d="M122.66,40.63a2.74,2.74,0,0,0,3.16,2.61c0,.14,0,.26,0,.36,0,.91.2,2,.19,3a2.81,2.81,0,0,1,0,.3,3.86,3.86,0,0,1-.1.76,2.14,2.14,0,0,1-.09.34c.72,1.71,1.67,3,3.56,3.52a7.27,7.27,0,0,0,1.72.18,8.68,8.68,0,0,0,6.13-2.44c-.36-2.66.54-6.06,1.48-8.92.72-2.2,1.47-4.08,1.66-5a28.46,28.46,0,0,0-6-5.53c-2.22-1.55-3.24-3.52-5.78-2.57s-2.83,6-3.76,8S122.66,38.55,122.66,40.63Z"/><path class="cls-8" d="M125.91,47.64a2.14,2.14,0,0,1-.09.34c1,2.76,2.75,4,5.28,3.7a8.68,8.68,0,0,0,6.13-2.44c-.36-2.66.54-6.06,1.48-8.92l-2.3-.58-2.49,4C132,47,127,46.35,126.74,43l-.92.26c0,.11,0,.23,0,.33,0,1.31.17,2.2.19,3a2.81,2.81,0,0,1,0,.3A3.23,3.23,0,0,1,125.91,47.64Z"/><path class="cls-7" d="M140.39,35.31A29.17,29.17,0,0,1,144,47.58c.58,3.32,0,9.34-1.54,12.52a2.2,2.2,0,0,0-2.09-.54c-.24-4.43-.54-8.72,0-11l-3.34-7.3C134.76,36.23,138.51,32.93,140.39,35.31Z"/><path class="cls-3" d="M136.33,63a.59.59,0,0,0,.71-.09c.56-.58,1.14-1,1.9-.78a1.41,1.41,0,0,1,.06.95l0,.09a13.74,13.74,0,0,1-1.33,3,.32.32,0,0,0,.08.39.47.47,0,0,0,.52,0c0,.3.35.41.61.14l.39-.43c0,.35.45.25.58,0l.73-.9a6.51,6.51,0,0,0,1.27-1.72,2.59,2.59,0,0,0,.14-.29,10,10,0,0,0,.51-3.23c-.25-.89-1-1-2.09-.54l-1.23.64a16.93,16.93,0,0,0-3,2.38C136.08,62.72,136.16,62.9,136.33,63Z"/><path class="cls-11" d="M137.73,66.51a.47.47,0,0,0,.52,0c0,.3.35.41.61.14l.39-.43c0,.35.45.25.58,0l.73-.9a6.51,6.51,0,0,0,1.27-1.72,2.18,2.18,0,0,1-1.85-.26C139.45,64.6,138.48,66.29,137.73,66.51Z"/><path class="cls-11" d="M136.34,63a.58.58,0,0,0,.7-.09c.56-.58,1.14-1,1.9-.78a1.41,1.41,0,0,1,.06.95l.31-1.32C137.94,61.44,137,62.74,136.34,63Z"/><path class="cls-12" d="M124.23,43a4.41,4.41,0,0,1-1-.73A2.6,2.6,0,0,0,124.23,43Z"/><path class="cls-3" d="M134.05,26.52c.34,1.15.63,2.76,1.06,3.95.25,1.36-2.26,4.06-3.94,3.94-1.19-.23-1.16-2.54-1.33-3.94Z"/><path class="cls-13" d="M133.81,26.51c0,3.94-1.84,9.59-4.24,8.62-1.71-.68,0-3.56,0-6.27Z"/><path class="cls-3" d="M133.66,28.37c-1.18,1.48-2.47,2.75-4.56,2.44-.77-.11-1.49-1.27-1.43-5.9a7.85,7.85,0,0,1,1.58-4.28,4.44,4.44,0,0,1,4.45-1.33A4,4,0,0,1,136.93,24C136.39,27.1,135,28.27,133.66,28.37Z"/><path class="cls-6" d="M134.45,28.08a1.86,1.86,0,0,1-1-.86,5.76,5.76,0,0,1-.63-2.56c-2.17-.22-4.45-1.8-4.45-2.53.09-1,.71-1.93,2.55-2.66a4.61,4.61,0,0,1,5.35,1.3c2.29,2.49.22,6.89-1.72,7.68Z"/><path class="cls-3" d="M134,27.49a2.65,2.65,0,0,1,.52-.63,1.05,1.05,0,0,1,.76-.27.5.5,0,0,1,.21.05.47.47,0,0,1,.23.42,1.13,1.13,0,0,1-.11.48,2.23,2.23,0,0,1-.54.78,1.31,1.31,0,0,1-.85.36.47.47,0,0,1-.35-.1.47.47,0,0,1-.13-.25A1.24,1.24,0,0,1,134,27.49Z"/><path class="cls-14" d="M73.65,81.3.22,123.7,0,47.35A15.28,15.28,0,0,1,7,35.3L54.71,7.72,66.43,1c2.59-1.5,4.85-1.18,6,.53a5.78,5.78,0,0,1,1,3.46Z"/><path class="cls-15" d="M41,67.48l-5.2-3-34.66,20A13.28,13.28,0,0,0,0,85.25l18.71,10.8L41,83.18A9.06,9.06,0,0,0,41,67.48Z"/><path class="cls-16" d="M41,67.48l-5.2-3-34.66,20A13.28,13.28,0,0,0,0,85.25l18.71,10.8L41,83.18A9.06,9.06,0,0,0,41,67.48Z"/><path class="cls-17" d="M41,65.46l-5.2-3-34.66,20A9.83,9.83,0,0,0,0,83.24L18.71,94,41,81.17A9.07,9.07,0,0,0,41,65.46Z"/><path class="cls-15" d="M34.63,75.48,30.13,57.3a1.41,1.41,0,0,0-.61-.85.5.5,0,0,0-.2-.08.41.41,0,0,0-.25,0L18.44,62.58c-.16.08-.23.34-.15.66l2.36,9.55-5.73,3.33a.49.49,0,0,0-.19.41,1.4,1.4,0,0,0,.65,1.11l8,4.63a.43.43,0,0,0,.53,0l-.07,0,10.63-6.18.06,0A.64.64,0,0,0,34.63,75.48Z"/><g class="cls-1"><path class="cls-7" d="M26,70a.42.42,0,0,0-.45,0L14.92,76.12a.49.49,0,0,1,.46,0l7.13,4.11,10.62-6.17Z"/><path class="cls-7" d="M34.63,75.48,30.13,57.3a1.41,1.41,0,0,0-.61-.85.5.5,0,0,0-.2-.08.41.41,0,0,0-.25,0L18.44,62.58a.42.42,0,0,1,.25,0,.9.9,0,0,1,.21.08,1.4,1.4,0,0,1,.6.86L24,81.65a.68.68,0,0,1-.09.62l-.07,0,10.63-6.18.06,0A.64.64,0,0,0,34.63,75.48Z"/><path class="cls-18" d="M21,63.11c0-.07,0-.14-.07-.22l7.92-4.6,4.2,17-7.91,4.59Z"/><path class="cls-17" d="M18.9,62.62a1.4,1.4,0,0,1,.6.86L24,81.65a.68.68,0,0,1-.09.62.43.43,0,0,1-.53,0l-8-4.63a1.4,1.4,0,0,1-.65-1.11c0-.4.3-.57.65-.36l7.13,4.11-4.22-17c-.11-.45.07-.76.4-.7A.9.9,0,0,1,18.9,62.62Z"/></g><path class="cls-16" d="M90.48,14.85c0-2.21-.79-3.76-2-4.48L71.4.47c-1.27-.74-3-.63-5,.49L7,35.29A15.36,15.36,0,0,0,0,47.35L.22,123.7l17,9.91,1.71-1-.21-76.36A11.58,11.58,0,0,1,24,47.17L74.67,17.91,71.94,82.3l17,9.9,1.72-1Z"/><path class="cls-17" d="M89,92.2l-17-9.9-.18-62.71,11.71-6.76c2.91-1.68,5.28-.33,5.29,3Z"/><path class="cls-14" d="M90.69,91.2,89,92.2l-.22-76.36c0-3.34-2.38-4.69-5.29-3L71.76,19.59,24,47.17a11.56,11.56,0,0,0-5.26,9.1L19,132.62l-1.71,1L17,57.25a15.35,15.35,0,0,1,7-12L71.75,17.63l11.72-6.77c2.59-1.5,4.85-1.18,6.06.53a5.87,5.87,0,0,1,1,3.46Z"/><path class="cls-16" d="M113.69,85.32a15.32,15.32,0,0,1,7,12.05l-.21,31.76,17-9.9.22-31.76a15.38,15.38,0,0,0-7-12.06l-58.84-34-17.1,9.87Z"/><path class="cls-19" d="M118.94,96.39a11.62,11.62,0,0,0-5.26-9.1,11.58,11.58,0,0,1,5.25,9.09l-.21,31.76,1.25.73-1.25-.73Z"/><path class="cls-14" d="M113.68,87.29a11.62,11.62,0,0,1,5.26,9.1l-.22,31.75,1.25.73.46.26.21-31.76a15.32,15.32,0,0,0-7-12.05l-58.9-34v2Z"/><path class="cls-15" d="M128.55,75.18,124,57a1.36,1.36,0,0,0-.6-.85.6.6,0,0,0-.21-.08.35.35,0,0,0-.25,0l-10.62,6.17c-.16.09-.24.34-.16.67l2.37,9.55-5.73,3.33a.44.44,0,0,0-.19.41,1.43,1.43,0,0,0,.64,1.11l8,4.63c.21.12.4.12.52,0l-.06,0,10.62-6.17a.18.18,0,0,0,.07,0A.68.68,0,0,0,128.55,75.18Z"/><g class="cls-1"><path class="cls-7" d="M119.92,69.7a.46.46,0,0,0-.46,0l-10.62,6.17a.44.44,0,0,1,.46,0L116.42,80l10.63-6.17Z"/><path class="cls-7" d="M128.55,75.18,124,57a1.36,1.36,0,0,0-.6-.85.6.6,0,0,0-.21-.08.35.35,0,0,0-.25,0l-10.62,6.17a.41.41,0,0,1,.25,0,.6.6,0,0,1,.21.08,1.43,1.43,0,0,1,.6.85l4.5,18.18a.64.64,0,0,1-.09.61l-.06,0,10.62-6.17a.18.18,0,0,0,.07,0A.68.68,0,0,0,128.55,75.18Z"/><path class="cls-18" d="M114.88,62.82a1.8,1.8,0,0,0-.06-.22l7.92-4.6,4.2,17L119,79.55Z"/><path class="cls-17" d="M112.82,62.33a1.43,1.43,0,0,1,.6.85l4.5,18.18a.64.64,0,0,1-.09.61c-.12.13-.31.13-.52,0l-8-4.63a1.43,1.43,0,0,1-.64-1.11c0-.41.29-.57.65-.36L116.42,80,112.2,63c-.11-.45.07-.76.41-.7A.6.6,0,0,1,112.82,62.33Z"/></g><ellipse class="cls-18" cx="7.97" cy="65.06" rx="3.89" ry="6.87" transform="translate(-37.51 17.86) rotate(-36.95)"/><polygon class="cls-17" points="13.14 79.24 2.8 73.27 2.8 69.27 13.14 75.24 13.14 79.24"/><polygon class="cls-18" points="13.14 85.16 2.8 79.19 2.8 77.19 13.14 83.16 13.14 85.16"/><polygon class="cls-18" points="13.14 88.85 2.8 82.88 2.8 80.88 13.14 86.85 13.14 88.85"/><polygon class="cls-18" points="11.26 89.45 2.8 84.56 2.8 86.56 11.26 91.45 11.26 89.45"/><polygon class="cls-18" points="13.14 96.22 2.8 90.25 2.8 88.25 13.14 94.22 13.14 96.22"/><path class="cls-3" d="M48.2,92.19c.36.83.71,1.63,1,2.39a12.41,12.41,0,0,0,1.38,3.24c.19.74-.18.77-.9.38L48.24,96a3.72,3.72,0,0,0-.94,1.7l.4,3.36c-.11.65-.37.59-.69.22l-.6-3,0,3.27c-.23.27-.43.18-.58-.26l-.19-.94c-.17.34-.33.27-.5-.07,0,0-.13-4-.12-4s1.28-4.6,1.28-4.6l.5-1,2,.55Z"/><path class="cls-18" d="M54.57,73.3c-.7,2.65-.52,5.89-1.43,9.73-1.24,3.84-2.77,5.72-4.53,10.09-.28.42-2.72-.12-2.62-.58,1.83-8.41.76-5.66,1.93-9.29.52-2.78.56-6.34.89-9.73.19-2.22,1-3.43,2.2-3.93C53.62,68.73,56,70.82,54.57,73.3Z"/><path class="cls-6" d="M54.32,129.21a11.05,11.05,0,0,1,.18,2.84c-.18.86-2.44,1.41-2.44,1.41a6.06,6.06,0,0,1-4.62,2.12c-1.58-.12-2.12-.54-2.37-1a1.47,1.47,0,0,1,.3-1.49c.31-.44,2.35-1.18,3.17-2.5.4-.64,1.07-2,1.07-2l.08-.72a2.08,2.08,0,0,1,2-1.86,2.26,2.26,0,0,1,2.39,2.42l0,.43Z"/><path class="cls-6" d="M63.74,135.26a8.58,8.58,0,0,1,.36,3.24,3.42,3.42,0,0,1-1.83,1.8s-.6,2.77-4.29,2.86c-3.47.08-3.44-1.32-3.43-1.32a2.07,2.07,0,0,1,.8-1.46,31.78,31.78,0,0,0,2.8-2.58,8,8,0,0,0,.82-1.53l.15-2.51H63.8Z"/><path class="cls-20" d="M50.37,91.86l6.15,8.33c-.3,2.3-.78,8.66-1.32,10.83,1.14,8.24-.33,17.57-1,18.09a3.07,3.07,0,0,1-4.49-.7A105.64,105.64,0,0,0,49.13,110Z"/><path class="cls-21" d="M54.65,98.58l1.7,15.47a208.24,208.24,0,0,1,2.73,22c1.11,2,4.07,1.19,5,0,.1-1.24.2-2.53.28-3.86.36-5.74.32-12.1-1.83-17.55.69-4,1.41-11.53,1.05-15.21a11.86,11.86,0,0,0-.26-8l0-.1-.1.08a5.1,5.1,0,0,1-1.72,1C57,93.82,50.35,90.16,50.34,90.25,50.19,94.71,51.81,96.48,54.65,98.58Z"/><path class="cls-22" d="M61,115c2.15,3.79,2.95,10.2,3.42,17.23.36-5.74.32-12.1-1.83-17.55.69-4,1.41-11.53,1.05-15.21a11.86,11.86,0,0,0-.26-8l-.15,0L61,91.08q.28.65.51,1.29a10.22,10.22,0,0,1,.14,6.87C62.5,103.71,61.91,109.22,61,115Z"/><path class="cls-18" d="M49.27,84.6c.29,1.84.65,3.61,1,5.31a2.72,2.72,0,0,0,.27,1c.44,1,1.57,2.24,4.53,2.5a17,17,0,0,0,4.62.15,7.28,7.28,0,0,0,2-.55l.08,0,.31-.16a2.66,2.66,0,0,0,1.46-2.12,84.7,84.7,0,0,0,1.26-9.4,30.36,30.36,0,0,0,0-3.16c-.09-2.3-.76-4.92-.75-6.49a42.23,42.23,0,0,1-6.62-3.39,19.42,19.42,0,0,0-7.69.09A38.68,38.68,0,0,0,49.27,84.6Z"/><path class="cls-23" d="M61.74,93.05l.08,0,.31-.16a2.66,2.66,0,0,0,1.46-2.12,84.7,84.7,0,0,0,1.26-9.4,30.36,30.36,0,0,0,0-3.16c-1.2-.65-2.62-1.46-2.62-1.46A39.11,39.11,0,0,1,61.74,93.05Z"/><polygon class="cls-17" points="55.02 73.8 54.57 75.23 53.75 74.93 53.75 73.32 54.57 72.76 55.02 73.8"/><path class="cls-16" d="M54.57,75.23a103.88,103.88,0,0,0,0,11.84l-1.33,1.27-.92-2.09a87.32,87.32,0,0,1,1.44-11.32Z"/><path class="cls-3" d="M56.85,66.91c.09,0,1.66,1.94,1.66,1.94,2.11,1.2-.59,5.63-3.46,5.17l-2.38-1.65Z"/><path class="cls-24" d="M58,68.26a15.06,15.06,0,0,1,1.66,1.3S58.54,74.93,55,75.23a9,9,0,0,0-.64-1.67C56.57,73.23,58,69.91,58,68.26Z"/><path class="cls-24" d="M54.38,73.56l-1.29,1.23s-1.24-5.05-.15-6.12S54.38,73.56,54.38,73.56Z"/><path class="cls-13" d="M51.07,72.85c0,2.12.54,3.77,2,3.52,3.08-.38,3.62-4.71,3.3-6.35Z"/><path class="cls-3" d="M53.34,61.58c2.58,0,4,1.23,4.15,3.92-.08,2.82-.22,4.53-1.58,6.46a4.14,4.14,0,0,1-3.32,1.77c-1.57-.08-3.88-3.84-4.1-6.56C48.11,64.43,50.45,62.33,53.34,61.58Z"/><path d="M48.81,69.16c.58,1.37,4,1.12,5.49-.56l.17,1,1.38-1.15L57.05,70l.44-.62a5.76,5.76,0,0,0-2.08-7.61C51.25,60.12,46.09,65,48.81,69.16Z"/><path class="cls-3" d="M56.24,69.64a2.46,2.46,0,0,0,.34-.9,1,1,0,0,0-.3-.87.72.72,0,0,0-.9,0,.74.74,0,0,0-.26.59,2.41,2.41,0,0,0,.12.65c.06.19.11.39.17.58a.53.53,0,0,0,.21.34.36.36,0,0,0,.37,0A1,1,0,0,0,56.24,69.64Z"/><path class="cls-3" d="M69.68,97.94l.16,2.41-.09,2.16-.63,1.59c-.11.38-.54.48-.39,0l-.55,1.74c-.12.52-.65.53-.62,0l.41-2.3-1.45,3.15c-.22.47-.8.51-.67-.12l1-3.42-1.06,1.87-1,1.25c-.43.43-1,.2-.73-.33l1.11-1.76s.47-1.37.65-2a12.29,12.29,0,0,0-.26-1.34L63,102.2c-.68.22-.95-.37-.35-.81l2.52-2.22,1.6-1,.13-.08L67.31,97l2.37.17Z"/><path class="cls-18" d="M65,72.29c2.7,2.91,4,6.26,6,11.22.5,4.08-.29,9.23-1.33,14.66-.76.39-1.59.1-2.64-.4.1-4-.9-8.13-.49-12.13-2.13-1.34-4.25-5.22-6.54-8.59C59.36,72.34,62.1,69.77,65,72.29Z"/><path class="cls-17" d="M31.2,147.91c2.51-.15,2-4.42,1.27-6.74a1.64,1.64,0,0,0-2.08-1c-.83.28-1.34,1.85-1.31,2.73S28.23,148.1,31.2,147.91Z"/><path class="cls-3" d="M32.57,143.47c.43-3.6-3.51-3.89-3,0,.14,1,.79,1.8,1.45,1.83C32.08,145.37,32.48,144.23,32.57,143.47Z"/><path class="cls-3" d="M44.24,142.06a6,6,0,0,0,3.86,1.3.64.64,0,0,0,.52-.18c.18-.23.05-.58-.1-.83-1.27-2.06-3.65-3.83-4.69-6a1.76,1.76,0,0,0-.45-.7c-.32-.26-.78-.21-1.18-.31s-.77-.33-1.11-.15-.37.59-.46.94-.27,1.3-.39,1.67a1.9,1.9,0,0,0-.08,1.13,1.79,1.79,0,0,0,.93,1c.41.22.85.36,1.26.58A13.9,13.9,0,0,1,44.24,142.06Z"/><path class="cls-17" d="M48.62,143.18a.68.68,0,0,1-.52.18,6,6,0,0,1-3.86-1.3,13.9,13.9,0,0,0-1.89-1.55c-.41-.22-.86-.36-1.26-.58a1.79,1.79,0,0,1-.93-1,1.94,1.94,0,0,1,.08-1.14c.1-.31.24-1.2.34-1.52a.78.78,0,0,0,.05-.14c.09-.35.16-.77.47-.94s.73.05,1.09.15.87,0,1.19.31a1.84,1.84,0,0,1,.45.7,7.94,7.94,0,0,0,1.71,2.24,22.24,22.24,0,0,1,3,3.78C48.67,142.61,48.81,143,48.62,143.18Z"/><path class="cls-3" d="M46.28,139.78a.38.38,0,0,1-.15.37.56.56,0,0,1-.34,0,6.08,6.08,0,0,1-3.25-1.61,8.56,8.56,0,0,1-1.36-1.33,4.49,4.49,0,0,1-.6-1,.78.78,0,0,0,.05-.14c.09-.35.11-1.08.41-1.25s.79,0,1.15.11,1-.13,1.33.13.13.76.25,1a9.18,9.18,0,0,0,1.77,2.46c.21.29.41.56.57.83A.87.87,0,0,1,46.28,139.78Z"/><path class="cls-3" d="M45.13,114.84c0,.56-.08,1.21-.12,1.93s-.1,1.41-.15,2.19q0,.93-.12,2c-.43,6.73-1,15.19-1,15.2l0,0c-.61,1.14-2.91,1.39-3.12,0A115.47,115.47,0,0,0,39,124.21c-.19-1.21-.36-2.39-.46-3.54a25.91,25.91,0,0,1-.11-2.9v-.14a16.5,16.5,0,0,1,.2-2.44c0-.24.09-.48.14-.71L44,111.11C44,111.25,45.13,114.69,45.13,114.84Z"/><path class="cls-3" d="M39,107.41c-.86,4.41-1.36,7.9-1.88,10.57l-.12.59a23.06,23.06,0,0,1-.7,2.69c-.06.17-.11.34-.18.49l-.43,2.07-.19.9-3.33,16-.12.57-.11.52c0,1.25-1.92.83-2-.23a1.94,1.94,0,0,0,0-.24c0-.24-.05-.47-.08-.7-1-9.65-.74-13.53-.09-17.17.08-.47.16-.93.26-1.4.13-.68.27-1.37.41-2.11,0-.24-.06-.47-.08-.71a1.1,1.1,0,0,1,0-.18s0-.07,0-.11A68.55,68.55,0,0,1,30,107.41Z"/><path class="cls-3" d="M39,107.41c-.86,4.41-1.36,7.9-1.88,10.57l-.12.59a23.06,23.06,0,0,1-.7,2.69c-.06.17-.11.34-.18.49l-.43,2.07-.19.9-3.33,16-.12.57-.11.52c0,1.25-1.92.83-2-.23a1.94,1.94,0,0,0,0-.24c0-.24-.05-.47-.08-.7-1-9.65-.74-13.53-.09-17.17.08-.47.16-.93.26-1.4.13-.68.27-1.37.41-2.11,0-.24-.06-.47-.08-.71a1.1,1.1,0,0,1,0-.18s0-.07,0-.11A68.55,68.55,0,0,1,30,107.41Z"/><path class="cls-13" d="M37.16,118l-.12.59a23.06,23.06,0,0,1-.7,2.69c-.06.17-.11.34-.18.49l-.43,2.07-.19.9a12.7,12.7,0,0,1-5.79-1.29c.08-.47.16-.93.26-1.4.13-.68.27-1.37.41-2.11,0-.24-.06-.47-.08-.71a1.1,1.1,0,0,1,0-.18Z"/><path class="cls-13" d="M45,116.77c0,.67-.1,1.41-.15,2.19q0,.93-.12,2a12.11,12.11,0,0,1-5.7,3.3c-.19-1.21-.36-2.39-.46-3.54a25.91,25.91,0,0,1-.11-2.9Z"/><path class="cls-25" d="M50.44,95.54l-8.09-1.61s-3.1-10.2-3-10.36,3.1-6.29,3.1-6.29L44.8,90.06l7,3.52Z"/><path class="cls-17" d="M50.44,95.54l-8.09-1.61s-3.1-10.2-3-10.36,3.1-6.29,3.1-6.29L44.8,90.06l7,3.52Z"/><path class="cls-26" d="M34.66,71.07c-5.15,1.67-4,6.54-2.66,10.35L35.64,78Z"/><path class="cls-17" d="M44.89,118.54c-.79,2.14-11.44,6.43-14.81,3.1l-1-14.72c-.91-4.83-.11-7.32,2.4-9.66.3-.28.62-.56,1-.84l7.48-.3L42.88,96A58.82,58.82,0,0,1,44.89,118.54Z"/><path class="cls-16" d="M46,88.66a2.73,2.73,0,0,1-3.16,2.6c0,1.43-.44,3.43,0,4.74-.72,1.71-1.67,3-3.56,3.52a8.83,8.83,0,0,1-7.83-2.26c.36-2.65-.54-6.05-1.48-8.9a47.44,47.44,0,0,1-1.19-5.93c1.74-2.17,3.34-3.08,5.56-4.62s3.91-3.32,6.44-2.37S43,81.23,43.9,83.22,46,86.59,46,88.66Z"/><path class="cls-27" d="M42.88,96c-.72,1.71-1.67,3-3.56,3.52a8.83,8.83,0,0,1-7.83-2.26c-2.51,2.34-3.31,4.83-2.4,9.66l1,14.72a4.56,4.56,0,0,0,1.65,1c-.69-5.14.09-17,1.18-21,6.2.25,8.82-1.21,10.27-4.63Z"/><path class="cls-27" d="M42.88,96c-.72,1.71-1.67,3-3.56,3.52a8.83,8.83,0,0,1-7.83-2.26c.36-2.65-.54-6.05-1.48-8.9l1.87-1.56,2.91,5c1.94,3.26,7,2.62,7.17-.71l.92.25C42.87,92.69,42.44,94.69,42.88,96Z"/><path class="cls-3" d="M36.67,94.13a2.74,2.74,0,0,0,1.52,1.17l1,.22c.11.31.58.37,1.05.42s.51-.21.48-.49c.28-.2.44-.41.32-.69a.53.53,0,0,0,.23-.72.64.64,0,0,0,.16-.8l2.57.3c.55.07.74-.46,0-.63L39.25,92a4.39,4.39,0,0,0-2,0l-1.64.42.1,2Z"/><path class="cls-16" d="M28.82,82.43c-2.72,3.33-5.57,12.67-3.61,14.06,2.25,2,7.09-.21,11.58-2-.24-1.06-.27-1.85.42-2.42l-8.3.94,3.3-5.23C33.49,83.37,31.3,80.82,28.82,82.43Z"/><path class="cls-3" d="M35.35,74.39c-.33,1.13-1.21,2.87-1.43,3.94-.24,1.32,2.2,3.38,3.83,3.26,1.16-.22,1.45-1.71,1.62-3.08Z"/><path class="cls-13" d="M36.18,75.25s-1,7.92,2.85,7.26c2.48-.42,2-4.51,2-4.51Z"/><path class="cls-26" d="M40.57,70.33c3.27.5,6.94,4.5,1.45,6.73C42.16,75.25,42.48,73.88,40.57,70.33Z"/><path class="cls-3" d="M38.58,68c3.81.53,5,2.77,4.61,5.8,0,2.55-2.16,5.91-3.64,5.85-2.11.12-3.14-2.34-4.94-5C33.22,70.35,35,67.51,38.58,68Z"/><path class="cls-26" d="M43.14,73.89a7.15,7.15,0,0,1-3.65,1.69c-1.33.55-2.63.5-3.14,1.24l-1.55-.64c-1.56-1.79-1.71-6.91,1-8C40,66.45,45.13,70.75,43.14,73.89Z"/><path class="cls-3" d="M36.29,76c-.24-.94-.89-1.55-1.44-1-.26.25-.24.71,0,1.29a1.07,1.07,0,0,0,.83.73C36.21,77.13,36.47,76.76,36.29,76Z"/><path class="cls-28" d="M48.14,87.49c-2.42,2.27-4,5.69-5.26,10.67l8.38.27c-.12-3.88,2.41-7.49,5.62-10.94Z"/><path class="cls-3" d="M51,93.81c-.86.09-.86.76-.22.83-1,0-1.14.84-.32.9-.56,0-.67.68.15.75-.61.19-.66.58,0,.67l.93.05c.38,0,.89-.19.78-.65.32,0,.57-.77.41-.83.29-.12.49-.68.28-.86.4-.21.45-.8-.12-1.43L52.63,93l-.41.79Z"/><polygon class="cls-3" points="100.64 50.28 100.64 52.75 104.28 52.64 103.77 49.74 100.64 50.28"/><path class="cls-3" d="M102.46,48.56l1.44-.8,1.92,1.05c.5.31.61,1-.1.81l-1.28-.27a2,2,0,0,1-.6,1.78l-.66.59-2.28,0-.26-1.4Z"/><path class="cls-24" d="M94.05,50.74l6.59-.46a2.13,2.13,0,0,1,.94,2.95l-6,2.54Z"/><path class="cls-6" d="M100.87,109.59c0-1.29-1-1.79-2.47-2a31.07,31.07,0,0,0-5.3,1.1l-2.6,1.42a5.8,5.8,0,0,0-.18,3.61,2.84,2.84,0,0,0,2.51.79l2.91-1.23.21-.42C98.28,112.65,100.87,111.6,100.87,109.59Z"/><path class="cls-6" d="M91.39,104.42c0-1.06-.94-1.24-2.35-1.35-2.54,0-2.65,1.28-5,1.22l-2.29,1.4a6.81,6.81,0,0,0-.1,3.86,3.27,3.27,0,0,0,2.55.63l2.37-1.39.2-.43C89,108,91.39,106.38,91.39,104.42Z"/><path class="cls-20" d="M83.07,68.49,91.54,72a30.68,30.68,0,0,1-.17,4c-.54,3.91-2.11,9.81-2.11,9.81a103.83,103.83,0,0,0-1.86,17.8c0,2.36-3.55,4.43-5.81,2.2C81,97.79,81,90,82.83,84.86c-.9-4.07,0-8.61.21-13.29C82.82,71.48,83.3,68.59,83.07,68.49Z"/><path class="cls-21" d="M89.4,76.9c0,4.68-.05,8.46,1.08,12.52-1.59,5.15-1.16,12.8-.07,20.8a3.44,3.44,0,0,0,4.58.63,2.77,2.77,0,0,0,1.11-2.72L97,90.36a97.31,97.31,0,0,0,1.56-9.79c.32-3.9-1.06-12.81-1.06-12.81a16.87,16.87,0,0,1-2.27.45c-5,.63-9.67-1.17-11.11-4-.08.21-.15.43-.22.64a20.31,20.31,0,0,0-.93,5.41C82.76,74.32,86.8,75.84,89.4,76.9Z"/><path class="cls-18" d="M98.57,52.86a51.57,51.57,0,0,0-.46,7.5c0,.91,0,1.79,0,2.66a23.1,23.1,0,0,1-.6,4.74,19.41,19.41,0,0,1-2.14.81C91,70,87,69.27,83.86,64.8a59,59,0,0,1-3.38-14.67c0-3,1-5.12,3.53-5.83,4.53,1.09,9.14,3.9,13.83,7.92Z"/><path class="cls-3" d="M93.72,44.62l-.43,4.08c-2.64,0-6.77-1.85-6.25-3.25l1.39-2.66Z"/><path class="cls-3" d="M95,45.14c-1,1.19-2.63,1-4.23.6-2.35-1.08-4-2.69-3.82-5.75-.18-2.22.82-4.55,4.61-4.42,2.41.07,4.46,1,4.61,3.52C96.15,39.09,96.27,44,95,45.14Z"/><path class="cls-24" d="M93.44,47.31l1,2.18c-4.51-.51-8.56-2.2-7.55-4.29l.82-1C87,45.74,91.49,47.54,93.44,47.31Z"/><path class="cls-6" d="M96.13,38.46A3.57,3.57,0,0,1,94.6,40.6a12.5,12.5,0,0,1,.07,2c-.11,0-1.15.93-1.15.93L93,45.09a4.16,4.16,0,0,1-5.29-.87c-.48-.61-1-3-.86-5.4a4.57,4.57,0,0,1,4.71-4C94.53,34.7,96.38,36.44,96.13,38.46Z"/><path class="cls-3" d="M94.35,42.93c.28-.32-.16-1.07-.48-1.17s-.7.5-.75.86a1.67,1.67,0,0,0,.27,1.25c.3.45.79,0,.94-.36S94.16,43.14,94.35,42.93Z"/><path class="cls-22" d="M98.52,80.57A97.31,97.31,0,0,1,97,90.36l-.86,17.78A2.76,2.76,0,0,1,95,110.85c.78-7.48,1.12-14.49,0-19.92,1.67-6.15,2.43-12.6.51-17.36a19,19,0,0,0-.17-5,19.41,19.41,0,0,0,2.14-.81S98.84,76.67,98.52,80.57Z"/><polygon class="cls-23" points="93.1 56.59 92.09 69.19 96.62 75.69 97.26 64.95 93.1 56.59"/><path class="cls-3" d="M101.05,76.85l-2.29-.77-.15,0-.11.27c-.06.22-.76,3.85-.75,3.94a8.54,8.54,0,0,0,1.19,3l1.87,1.28s1,.4,1.09-.17l-.6-.94.37-1.36.34-.75.36.92c.6,1.36,1.56,1.22,1.41.62l-.57-1.3-.37-2.15Z"/><path class="cls-18" d="M96.72,51.2c2,1.23,2.91,2,3,5.92l-.49,10.46,2.35,9.89c-.19,1.08-2.57,1.68-3.47,1-1.59-2.61-2.39-4.85-4.12-9.22l-.94-11.47C92.8,53.57,92.72,50.65,96.72,51.2Z"/><path class="cls-16" d="M48.18,119l.09,32.42,17,9.9,1.56-.89L66.78,128a10.51,10.51,0,0,1,4.76-8.25l18-10.42.06,18.21,17,9.9,1.56-.9-.1-32.42c0-2.06-.75-3.48-2-4.12l.11,0-17-9.9c-1.15-.67-2.75-.57-4.51.44L54.5,108A13.91,13.91,0,0,0,48.18,119Zm17,9.9v0Z"/><path class="cls-17" d="M89.59,109.31l.06,18.21,17,9.9L106.59,105c0-.14,0-.29,0-.42s0-.12,0-.18a4.06,4.06,0,0,0-.17-.83,1,1,0,0,0-.08-.23,1.28,1.28,0,0,0-.11-.27,2,2,0,0,0-.14-.25.86.86,0,0,0-.1-.16c-.06-.08-.11-.16-.18-.24a2.21,2.21,0,0,0-.28-.26,2,2,0,0,0-.3-.21l-.18-.11a3.5,3.5,0,0,0-3.22.43Z"/><path class="cls-14" d="M65.22,128.88l.09,32.43,1.56-.9L66.78,128a10.51,10.51,0,0,1,4.76-8.25l18-10.42,12.21-7a3.5,3.5,0,0,1,3.22-.43l.18.11a1.48,1.48,0,0,1,.3.21,1.23,1.23,0,0,1,.26.25,1.46,1.46,0,0,1,.2.25.86.86,0,0,1,.1.16,1.48,1.48,0,0,1,.14.25,1.28,1.28,0,0,1,.11.27,1,1,0,0,1,.08.23,4.2,4.2,0,0,1,.17.83c0,.06,0,.12,0,.18s0,.28,0,.42l.09,32.43,1.56-.9-.1-32.42c0-3.85-2.6-5.5-5.89-3.88l-.46.25-12.2,7L71.53,118A13.94,13.94,0,0,0,65.22,128.88Z"/><path class="cls-15" d="M65.79,106.4l.07,0,10.62,6.17-.06-.05a.41.41,0,0,0,.52,0L85,108a1.43,1.43,0,0,0,.64-1.11.45.45,0,0,0-.19-.41l-5.73-3.33,2.37-9.55c.08-.33,0-.58-.18-.67,0,0-10.61-6.17-10.61-6.17a.39.39,0,0,0-.25,0,1,1,0,0,0-.2.08,1.46,1.46,0,0,0-.61.86l-4.5,18.17A.68.68,0,0,0,65.79,106.4Z"/><g class="cls-1"><path class="cls-7" d="M74.33,100.3a.49.49,0,0,1,.46,0l10.62,6.18a.46.46,0,0,0-.46,0l-7.13,4.12L67.2,104.41Z"/><path class="cls-7" d="M65.7,105.78l4.5-18.17a1.46,1.46,0,0,1,.61-.86,1,1,0,0,1,.2-.08.39.39,0,0,1,.25,0l10.63,6.17a.35.35,0,0,0-.25,0,.6.6,0,0,0-.21.08,1.39,1.39,0,0,0-.6.85L76.33,112a.61.61,0,0,0,.09.61l.06.05-10.62-6.17-.07,0A.68.68,0,0,1,65.7,105.78Z"/><path class="cls-18" d="M79.36,93.42a1.42,1.42,0,0,1,.07-.22l-7.92-4.6-4.2,17,7.91,4.6Z"/><path class="cls-17" d="M81.43,92.93a1.39,1.39,0,0,0-.6.85L76.33,112a.61.61,0,0,0,.09.61.41.41,0,0,0,.52,0L85,108a1.43,1.43,0,0,0,.64-1.11c0-.41-.29-.57-.65-.37l-7.13,4.12,4.23-17c.11-.45-.08-.76-.41-.7A.6.6,0,0,0,81.43,92.93Z"/></g><path class="cls-18" d="M61.7,136.3c0,2.85-2.31,3.83-5.17,2.18s-5.17-5.29-5.17-8.15,2.31-3.83,5.17-2.18S61.7,133.44,61.7,136.3Z"/><polygon class="cls-17" points="61.7 147.49 51.36 141.52 51.36 137.52 61.7 143.49 61.7 147.49"/></g></g></g></svg>